<svg width="18" height="16" viewBox="0 0 18 16" fill="none" xmlns="http://www.w3.org/2000/svg">
<path fill-rule="evenodd" clip-rule="evenodd" d="M12.7503 0.5C13.3226 0.5 13.7958 0.8255 14.1423 1.1675C14.5031 1.52225 14.8338 1.99925 15.1278 2.525C15.7181 3.5795 16.2318 4.95725 16.5716 6.3185C16.9091 7.66925 17.0958 9.08 16.9766 10.1893C16.8566 11.303 16.2828 12.5 15.0003 12.5C13.8933 12.5 13.0113 11.93 12.2898 11.3517L12.0266 11.135L11.6576 10.8237L11.3246 10.5477C10.5603 9.929 9.88159 9.5 9.00034 9.5C8.11909 9.5 7.44034 9.929 6.67609 10.5477L6.34309 10.8237L5.97409 11.135L5.71159 11.3517C4.98859 11.93 4.10659 12.5 3.00034 12.5C1.71709 12.5 1.14334 11.303 1.02409 10.1893C0.905587 9.07925 1.09159 7.66925 1.42909 6.3185C1.76884 4.95725 2.28259 3.5795 2.87284 2.52425C3.16684 1.99925 3.49759 1.52225 3.85834 1.16675C4.20484 0.8255 4.67809 0.5 5.25034 0.5C5.63659 0.5 6.01384 0.59225 6.38509 0.7025L6.82909 0.83825C6.90309 0.86125 6.97684 0.883 7.05034 0.9035C7.69909 1.0895 8.36284 1.25 9.00034 1.25C9.63784 1.25 10.3016 1.0895 10.9503 0.9035L11.6141 0.70325C11.9876 0.593 12.3678 0.5 12.7503 0.5ZM12.7503 2C12.4631 2 12.1631 2.087 11.8721 2.18225L11.5286 2.2955L11.3628 2.3465C10.6991 2.5355 9.86284 2.75 9.00034 2.75C8.13784 2.75 7.30159 2.5355 6.63784 2.3465L6.47284 2.2955L6.12859 2.18225C5.83759 2.08625 5.53759 2 5.25034 2C4.93684 2.0585 4.65559 2.43875 4.44334 2.79125L4.32484 2.9975L4.18234 3.257C3.67084 4.1705 3.19984 5.417 2.88484 6.68225C2.58859 7.86425 2.44459 8.99675 2.49934 9.83975L2.51884 10.0595L2.53384 10.1915L2.55634 10.3475C2.60809 10.6482 2.71984 11 3.00034 11C3.60934 11 4.11784 10.697 4.75009 10.1945L5.05234 9.9485L5.62234 9.4715L5.88034 9.2615C6.67834 8.62925 7.67659 8 9.00034 8C10.3241 8 11.3223 8.63 12.1203 9.2615L12.3791 9.4715L12.9491 9.9485L13.2506 10.1945C13.8828 10.697 14.3906 11 15.0003 11C15.2553 11 15.3708 10.7097 15.4286 10.4307L15.4571 10.2673L15.4848 10.0295C15.5771 9.17 15.4346 7.95575 15.1166 6.68225C14.8271 5.52275 14.4071 4.37825 13.9451 3.49175L13.6758 2.99675L13.5573 2.792C13.3451 2.43875 13.0638 2.0585 12.7503 2ZM6.37534 3.5C6.87262 3.5 7.34953 3.69754 7.70116 4.04917C8.05279 4.40081 8.25034 4.87772 8.25034 5.375C8.25034 5.87228 8.05279 6.34919 7.70116 6.70083C7.34953 7.05246 6.87262 7.25 6.37534 7.25C5.87806 7.25 5.40114 7.05246 5.04951 6.70083C4.69788 6.34919 4.50034 5.87228 4.50034 5.375C4.50034 4.87772 4.69788 4.40081 5.04951 4.04917C5.40114 3.69754 5.87806 3.5 6.37534 3.5ZM11.6253 3.5C11.809 3.50002 11.9863 3.56747 12.1236 3.68954C12.2609 3.81161 12.3486 3.97981 12.3701 4.16225L12.3753 4.25V4.625H12.7503C12.9415 4.62521 13.1254 4.69841 13.2644 4.82964C13.4034 4.96086 13.487 5.14021 13.4982 5.33105C13.5094 5.52188 13.4473 5.70978 13.3246 5.85637C13.2019 6.00296 13.0279 6.09717 12.8381 6.11975L12.7503 6.125H12.3753V6.5C12.3751 6.69116 12.3019 6.87502 12.1707 7.01403C12.0395 7.15303 11.8601 7.23668 11.6693 7.24788C11.4785 7.25908 11.2906 7.19699 11.144 7.0743C10.9974 6.95161 10.9032 6.77757 10.8806 6.58775L10.8753 6.5V6.125H10.5003C10.3092 6.12479 10.1253 6.05159 9.98631 5.92036C9.84731 5.78914 9.76366 5.60979 9.75246 5.41895C9.74125 5.22812 9.80334 5.04022 9.92603 4.89363C10.0487 4.74704 10.2228 4.65283 10.4126 4.63025L10.5003 4.625H10.8753V4.25C10.8753 4.05109 10.9544 3.86032 11.095 3.71967C11.2357 3.57902 11.4264 3.5 11.6253 3.5ZM6.37534 5C6.27588 5 6.1805 5.03951 6.11017 5.10983C6.03985 5.18016 6.00034 5.27554 6.00034 5.375C6.00034 5.47446 6.03985 5.56984 6.11017 5.64017C6.1805 5.71049 6.27588 5.75 6.37534 5.75C6.47479 5.75 6.57018 5.71049 6.6405 5.64017C6.71083 5.56984 6.75034 5.47446 6.75034 5.375C6.75034 5.27554 6.71083 5.18016 6.6405 5.10983C6.57018 5.03951 6.47479 5 6.37534 5Z" fill="white"/>
</svg>
