<svg width="32" height="32" viewBox="0 0 32 32" fill="none" xmlns="http://www.w3.org/2000/svg">
<rect width="32" height="32" rx="12" fill="white"/>
<path fill-rule="evenodd" clip-rule="evenodd" d="M16.0002 19.6251C16.1991 19.6251 16.3899 19.5461 16.5306 19.4054C16.6712 19.2648 16.7502 19.074 16.7502 18.8751V7.90247L18.4302 9.8634C18.5596 10.0146 18.7438 10.1081 18.9422 10.1235C19.1406 10.1389 19.337 10.0748 19.4881 9.9454C19.6393 9.81598 19.7329 9.63181 19.7482 9.4334C19.7636 9.23499 19.6995 9.0386 19.5701 8.88743L16.5702 5.38755C16.4998 5.30522 16.4124 5.23912 16.314 5.19379C16.2156 5.14847 16.1086 5.125 16.0002 5.125C15.8919 5.125 15.7849 5.14847 15.6865 5.19379C15.5881 5.23912 15.5007 5.30522 15.4303 5.38755L12.4304 8.88743C12.3663 8.96229 12.3176 9.04903 12.287 9.1427C12.2564 9.23638 12.2446 9.33516 12.2522 9.4334C12.2599 9.53164 12.2867 9.62742 12.3314 9.71527C12.376 9.80312 12.4375 9.88132 12.5124 9.9454C12.5872 10.0095 12.6739 10.0582 12.7676 10.0888C12.8613 10.1193 12.9601 10.1311 13.0583 10.1235C13.1566 10.1159 13.2523 10.089 13.3402 10.0444C13.428 9.99975 13.5062 9.93825 13.5703 9.8634L15.2503 7.90347V18.8751C15.2503 19.2891 15.5863 19.6251 16.0002 19.6251Z" fill="#FCC978"/>
<path d="M19.9995 12.875C19.2976 12.875 18.9466 12.875 18.6936 13.044C18.5848 13.1168 18.4914 13.2102 18.4186 13.319C18.2496 13.572 18.2496 13.923 18.2496 14.6249V18.8748C18.2496 19.4715 18.0126 20.0438 17.5906 20.4657C17.1687 20.8877 16.5964 21.1247 15.9997 21.1247C15.403 21.1247 14.8307 20.8877 14.4087 20.4657C13.9868 20.0438 13.7497 19.4715 13.7497 18.8748V14.6249C13.7497 13.923 13.7497 13.572 13.5808 13.319C13.508 13.2102 13.4145 13.1168 13.3058 13.044C13.0528 12.875 12.7018 12.875 11.9998 12.875C9.1719 12.875 7.75694 12.875 6.87897 13.754C6 14.6319 6 16.0449 6 18.8738V19.8738C6 22.7037 6 24.1166 6.87897 24.9956C7.75694 25.8746 9.1719 25.8746 11.9998 25.8746H19.9995C22.8275 25.8746 24.2424 25.8746 25.1204 24.9956C25.9983 24.1166 25.9993 22.7027 25.9993 19.8748V18.8748C25.9993 16.0459 25.9993 14.6319 25.1204 13.754C24.2424 12.875 22.8275 12.875 19.9995 12.875Z" fill="#FCC978"/>
</svg>
