<svg width="17" height="17" viewBox="0 0 17 17" fill="none" xmlns="http://www.w3.org/2000/svg">
<path d="M9.118 15.486C9.0683 15.4981 9.01703 15.5025 8.966 15.499C8.566 15.513 8.16 15.366 7.854 15.06L5.732 12.94C5.63811 12.8461 5.58537 12.7188 5.58537 12.586C5.58537 12.4532 5.63811 12.3259 5.732 12.232C5.82589 12.1381 5.95322 12.0854 6.086 12.0854C6.21878 12.0854 6.34611 12.1381 6.44 12.232L8.5 14.292V2C8.5 1.86739 8.55268 1.74021 8.64645 1.64645C8.74021 1.55268 8.86739 1.5 9 1.5C9.13261 1.5 9.25979 1.55268 9.35355 1.64645C9.44732 1.74021 9.5 1.86739 9.5 2V14.121L11.39 12.232C11.485 12.1447 11.6101 12.0975 11.7391 12.1002C11.8681 12.103 11.991 12.1555 12.0822 12.2468C12.1733 12.3381 12.2257 12.4611 12.2282 12.5901C12.2308 12.7191 12.1834 12.8441 12.096 12.939L9.976 15.06C9.74425 15.292 9.44287 15.4416 9.118 15.486ZM13.5 2V9C13.5 9.13261 13.4473 9.25979 13.3536 9.35355C13.2598 9.44732 13.1326 9.5 13 9.5C12.8674 9.5 12.7402 9.44732 12.6464 9.35355C12.5527 9.25979 12.5 9.13261 12.5 9V2C12.5 1.86739 12.5527 1.74021 12.6464 1.64645C12.7402 1.55268 12.8674 1.5 13 1.5C13.1326 1.5 13.2598 1.55268 13.3536 1.64645C13.4473 1.74021 13.5 1.86739 13.5 2ZM5.5 2L5.5 9C5.5 9.13261 5.44732 9.25979 5.35355 9.35355C5.25979 9.44732 5.13261 9.5 5 9.5C4.86739 9.5 4.74021 9.44732 4.64645 9.35355C4.55268 9.25979 4.5 9.13261 4.5 9V2C4.5 1.86739 4.55268 1.74021 4.64645 1.64645C4.74021 1.55268 4.86739 1.5 5 1.5C5.13261 1.5 5.25979 1.55268 5.35355 1.64645C5.44732 1.74021 5.5 1.86739 5.5 2Z" fill="#666666"/>
</svg>
