<svg width="25" height="25" viewBox="0 0 25 25" fill="none" xmlns="http://www.w3.org/2000/svg">
<path d="M18 12.5C17.6022 12.5 17.2206 12.342 16.9393 12.0607C16.658 11.7794 16.5 11.3978 16.5 11C16.5 10.6022 16.658 10.2206 16.9393 9.93934C17.2206 9.65804 17.6022 9.5 18 9.5C18.3978 9.5 18.7794 9.65804 19.0607 9.93934C19.342 10.2206 19.5 10.6022 19.5 11C19.5 11.3978 19.342 11.7794 19.0607 12.0607C18.7794 12.342 18.3978 12.5 18 12.5ZM15 8.5C14.6022 8.5 14.2206 8.34196 13.9393 8.06066C13.658 7.77936 13.5 7.39782 13.5 7C13.5 6.60218 13.658 6.22064 13.9393 5.93934C14.2206 5.65804 14.6022 5.5 15 5.5C15.3978 5.5 15.7794 5.65804 16.0607 5.93934C16.342 6.22064 16.5 6.60218 16.5 7C16.5 7.39782 16.342 7.77936 16.0607 8.06066C15.7794 8.34196 15.3978 8.5 15 8.5ZM10 8.5C9.60218 8.5 9.22064 8.34196 8.93934 8.06066C8.65804 7.77936 8.5 7.39782 8.5 7C8.5 6.60218 8.65804 6.22064 8.93934 5.93934C9.22064 5.65804 9.60218 5.5 10 5.5C10.3978 5.5 10.7794 5.65804 11.0607 5.93934C11.342 6.22064 11.5 6.60218 11.5 7C11.5 7.39782 11.342 7.77936 11.0607 8.06066C10.7794 8.34196 10.3978 8.5 10 8.5ZM7 12.5C6.60218 12.5 6.22064 12.342 5.93934 12.0607C5.65804 11.7794 5.5 11.3978 5.5 11C5.5 10.6022 5.65804 10.2206 5.93934 9.93934C6.22064 9.65804 6.60218 9.5 7 9.5C7.39782 9.5 7.77936 9.65804 8.06066 9.93934C8.34196 10.2206 8.5 10.6022 8.5 11C8.5 11.3978 8.34196 11.7794 8.06066 12.0607C7.77936 12.342 7.39782 12.5 7 12.5ZM12.5 3.5C10.1131 3.5 7.82387 4.44821 6.13604 6.13604C4.44821 7.82387 3.5 10.1131 3.5 12.5C3.5 14.8869 4.44821 17.1761 6.13604 18.864C7.82387 20.5518 10.1131 21.5 12.5 21.5C12.8978 21.5 13.2794 21.342 13.5607 21.0607C13.842 20.7794 14 20.3978 14 20C14 19.61 13.85 19.26 13.61 19C13.38 18.73 13.23 18.38 13.23 18C13.23 17.6022 13.388 17.2206 13.6693 16.9393C13.9506 16.658 14.3322 16.5 14.73 16.5H16.5C17.8261 16.5 19.0979 15.9732 20.0355 15.0355C20.9732 14.0979 21.5 12.8261 21.5 11.5C21.5 7.08 17.47 3.5 12.5 3.5Z" fill="#666666"/>
</svg>
