<svg width="24" height="25" viewBox="0 0 24 25" fill="none" xmlns="http://www.w3.org/2000/svg">
<path fill-rule="evenodd" clip-rule="evenodd" d="M21.314 10.9619C21.5462 11.1941 21.7304 11.4697 21.8561 11.7731C21.9818 12.0764 22.0465 12.4016 22.0465 12.7299C22.0465 13.0583 21.9818 13.3834 21.8561 13.6868C21.7304 13.9901 21.5462 14.2658 21.314 14.4979L18.485 17.3259C18.114 17.6966 17.6357 17.9413 17.1179 18.0252C16.6002 18.1091 16.0692 18.028 15.6 17.7934C15.1309 17.5588 14.7474 17.1827 14.5039 16.7181C14.2603 16.2536 14.1691 15.7242 14.243 15.2049L13.27 14.2319L7.19201 21.2459C6.94075 21.5355 6.63254 21.7703 6.28659 21.9357C5.94063 22.101 5.56434 22.1933 5.18115 22.2069C4.79796 22.2205 4.41608 22.155 4.05929 22.0146C3.70251 21.8741 3.37846 21.6617 3.10733 21.3906C2.83621 21.1195 2.62381 20.7954 2.48337 20.4386C2.34293 20.0819 2.27746 19.7 2.29103 19.3168C2.3046 18.9336 2.39693 18.5573 2.56226 18.2113C2.72759 17.8654 2.96238 17.5572 3.25201 17.3059L10.265 11.2269L9.29301 10.2549C8.77353 10.3291 8.24387 10.238 7.77906 9.99445C7.31426 9.75089 6.93787 9.36725 6.70324 8.89787C6.46861 8.4285 6.38762 7.89719 6.47176 7.37922C6.55589 6.86126 6.80088 6.3829 7.17201 6.01192L10 3.18492C10.371 2.81366 10.8495 2.5686 11.3676 2.48447C11.8857 2.40034 12.4171 2.48141 12.8866 2.71619C13.356 2.95096 13.7396 3.32754 13.9831 3.79253C14.2266 4.25753 14.3175 4.78735 14.243 5.30692L19.193 10.2559C19.577 10.2012 19.9685 10.2366 20.3364 10.3593C20.7044 10.4821 21.0387 10.6887 21.313 10.9629M11.06 9.19492L15.302 13.4369L17.424 11.3159L13.181 7.07292L11.06 9.19492ZM19.9 13.0839C19.9465 13.0375 19.9834 12.9824 20.0086 12.9217C20.0338 12.861 20.0467 12.796 20.0468 12.7303C20.0468 12.6646 20.0339 12.5995 20.0088 12.5388C19.9837 12.4781 19.9469 12.4229 19.9005 12.3764C19.8541 12.3299 19.799 12.293 19.7383 12.2679C19.6776 12.2427 19.6126 12.2297 19.5469 12.2296C19.4812 12.2296 19.4161 12.2425 19.3554 12.2676C19.2947 12.2927 19.2395 12.3295 19.193 12.3759L16.364 15.2049C16.3163 15.251 16.2782 15.3062 16.252 15.3672C16.2258 15.4282 16.212 15.4938 16.2114 15.5602C16.2108 15.6266 16.2235 15.6924 16.2486 15.7539C16.2737 15.8153 16.3109 15.8712 16.3578 15.9181C16.4048 15.9651 16.4606 16.0022 16.522 16.0273C16.5835 16.0525 16.6493 16.0651 16.7157 16.0645C16.7821 16.064 16.8477 16.0502 16.9087 16.024C16.9697 15.9978 17.0249 15.9597 17.071 15.9119L19.9 13.0839ZM12.122 5.30492C12.1698 5.25879 12.2079 5.20362 12.2341 5.14262C12.2603 5.08162 12.2741 5.01601 12.2746 4.94962C12.2752 4.88323 12.2626 4.81739 12.2374 4.75594C12.2123 4.69449 12.1752 4.63867 12.1282 4.59172C12.0813 4.54477 12.0254 4.50765 11.964 4.48251C11.9025 4.45737 11.8367 4.44471 11.7703 4.44529C11.7039 4.44587 11.6383 4.45966 11.5773 4.48587C11.5163 4.51207 11.4611 4.55016 11.415 4.59792L8.58601 7.42692C8.53826 7.47304 8.50017 7.52821 8.47396 7.58921C8.44776 7.65022 8.43396 7.71583 8.43339 7.78222C8.43281 7.84861 8.44546 7.91445 8.4706 7.97589C8.49574 8.03734 8.53287 8.09317 8.57981 8.14011C8.62676 8.18706 8.68259 8.22419 8.74404 8.24933C8.80548 8.27447 8.87132 8.28712 8.93771 8.28654C9.0041 8.28597 9.06971 8.27217 9.13071 8.24597C9.19172 8.21976 9.24689 8.18167 9.29301 8.13392L12.122 5.30492ZM5.68001 19.9359L11.688 13.0039L11.494 12.8089L4.56101 18.8169C4.48116 18.889 4.41681 18.9765 4.37186 19.0742C4.32691 19.172 4.30231 19.2778 4.29956 19.3853C4.2968 19.4928 4.31595 19.5998 4.35583 19.6997C4.39572 19.7996 4.45551 19.8903 4.53156 19.9664C4.60762 20.0424 4.69835 20.1022 4.79824 20.1421C4.89813 20.182 5.00508 20.2011 5.11261 20.1984C5.22013 20.1956 5.32597 20.171 5.42369 20.1261C5.5214 20.0811 5.60895 20.0168 5.68101 19.9369" fill="#666666"/>
</svg>
