<svg width="19" height="18" viewBox="0 0 19 18" fill="none" xmlns="http://www.w3.org/2000/svg">
<g clip-path="url(#clip0_854_127)">
<path d="M17.8204 10.2425L16.4 5.13188C15.9836 3.63469 15.0788 2.31963 13.8292 1.39573C12.5797 0.471832 11.0572 -0.00787761 9.5037 0.0328517C7.95023 0.0735811 6.45495 0.632412 5.25554 1.62052C4.05613 2.60862 3.22142 3.96929 2.8841 5.48625L1.78438 10.4316C1.66291 10.9781 1.66572 11.5448 1.7926 12.09C1.91948 12.6353 2.1672 13.145 2.51747 13.5817C2.86773 14.0183 3.3116 14.3708 3.81629 14.6129C4.32099 14.8551 4.87363 14.9808 5.43342 14.9808H6.26625C6.43783 15.8258 6.89627 16.5855 7.56389 17.1311C8.2315 17.6768 9.06724 17.9749 9.92949 17.9749C10.7917 17.9749 11.6275 17.6768 12.2951 17.1311C12.9627 16.5855 13.4211 15.8258 13.5927 14.9808H14.2192C14.7955 14.9808 15.3639 14.8476 15.8802 14.5916C16.3965 14.3356 16.8465 13.9637 17.1953 13.5049C17.544 13.0461 17.782 12.513 17.8905 11.947C17.9991 11.3811 17.9754 10.7977 17.8211 10.2425H17.8204ZM9.92949 16.476C9.46727 16.4741 9.01694 16.3294 8.6401 16.0617C8.26326 15.7941 7.97831 15.4165 7.82424 14.9808H12.0347C11.8807 15.4165 11.5957 15.7941 11.2189 16.0617C10.842 16.3294 10.3917 16.4741 9.92949 16.476ZM16.0045 12.5997C15.7962 12.876 15.5263 13.1 15.2162 13.2538C14.9062 13.4076 14.5645 13.4869 14.2185 13.4856H5.43342C5.09759 13.4855 4.76605 13.41 4.46329 13.2647C4.16053 13.1194 3.89426 12.9079 3.68416 12.6459C3.47405 12.3839 3.32546 12.0781 3.24935 11.751C3.17325 11.4239 3.17157 11.0839 3.24445 10.7561L4.34342 5.80996C4.60833 4.61844 5.26394 3.54966 6.20603 2.77354C7.14812 1.99742 8.32261 1.55848 9.54281 1.52652C10.763 1.49455 11.9589 1.87139 12.9403 2.59712C13.9217 3.32286 14.6324 4.35583 14.9593 5.53185L16.3798 10.6424C16.4736 10.9754 16.4886 11.3257 16.4234 11.6654C16.3583 12.0052 16.2148 12.325 16.0045 12.5997Z" fill="#666666"/>
<circle cx="15.9103" cy="3.01921" r="2.9904" fill="#4C50A2"/>
</g>
<defs>
<clipPath id="clip0_854_127">
<rect width="17.9424" height="17.9424" fill="white" transform="translate(0.958984 0.0288086)"/>
</clipPath>
</defs>
</svg>
