<svg width="23" height="22" viewBox="0 0 23 22" fill="none" xmlns="http://www.w3.org/2000/svg">
<path d="M0.99168 19.97L11.3917 9.56998L9.87501 8.03165L9.09501 8.80081C8.99479 8.90124 8.87574 8.98092 8.74469 9.03528C8.61363 9.08964 8.47314 9.11763 8.33126 9.11763C8.18938 9.11763 8.04889 9.08964 7.91784 9.03528C7.78678 8.98092 7.66774 8.90124 7.56751 8.80081L6.79835 8.03165C6.69792 7.93142 6.61824 7.81238 6.56388 7.68132C6.50951 7.55027 6.48153 7.40978 6.48153 7.2679C6.48153 7.12601 6.50951 6.98552 6.56388 6.85447C6.61824 6.72342 6.69792 6.60437 6.79835 6.50415L12.93 0.372479C13.0302 0.27205 13.1493 0.192373 13.2803 0.13801C13.4114 0.0836466 13.5519 0.0556641 13.6938 0.0556641C13.8356 0.0556641 13.9761 0.0836466 14.1072 0.13801C14.2382 0.192373 14.3573 0.27205 14.4575 0.372479L15.2267 1.14165C15.6492 1.56415 15.6492 2.24665 15.2267 2.66915L14.4575 3.41665L15.9958 4.96581C16.0961 4.86538 16.2151 4.78571 16.3462 4.73134C16.4772 4.67698 16.6177 4.649 16.7596 4.649C16.9015 4.649 17.042 4.67698 17.173 4.73134C17.3041 4.78571 17.4231 4.86538 17.5233 4.96581C17.9458 5.38831 17.9458 6.08165 17.5233 6.50415L19.0508 8.03165L19.82 7.26248C20.2425 6.83998 20.9358 6.83998 21.3583 7.26248L22.1167 8.03165C22.5392 8.45415 22.5392 9.14748 22.1167 9.56998L15.9958 15.6908C15.5733 16.1133 14.88 16.1133 14.4575 15.6908L13.6992 14.9325C13.5963 14.8325 13.5145 14.7129 13.4587 14.5808C13.4029 14.4487 13.3741 14.3067 13.3741 14.1633C13.3741 14.0199 13.4029 13.8779 13.4587 13.7458C13.5145 13.6137 13.5963 13.4941 13.6992 13.3941L14.4575 12.625L12.93 11.0975L2.51918 21.5083C2.41896 21.6087 2.29991 21.6884 2.16886 21.7428C2.0378 21.7971 1.89731 21.8251 1.75543 21.8251C1.61355 21.8251 1.47306 21.7971 1.342 21.7428C1.21095 21.6884 1.0919 21.6087 0.99168 21.5083C0.56918 21.0858 0.56918 20.3925 0.99168 19.97ZM20.1667 18.5833C20.7413 18.5833 21.2924 18.8116 21.6987 19.2179C22.1051 19.6242 22.3333 20.1753 22.3333 20.75V21.8333H11.5V20.75C11.5 20.1753 11.7283 19.6242 12.1346 19.2179C12.5409 18.8116 13.092 18.5833 13.6667 18.5833H20.1667Z" fill="#EE8E32"/>
</svg>
