<svg width="24" height="25" viewBox="0 0 24 25" fill="none" xmlns="http://www.w3.org/2000/svg">
<g clip-path="url(#clip0_527_888)">
<path d="M10 11.8333H12V13.1666H10V11.8333Z" fill="#666666"/>
<path d="M17.6333 9.94662C16.451 8.01182 14.838 6.37603 12.92 5.16662C12.0339 4.60504 11.0239 4.26891 9.97801 4.18757C8.93214 4.10622 7.88225 4.28213 6.92001 4.69995C6.07835 5.09695 5.34597 5.69286 4.78613 6.43622C4.22629 7.17958 3.8558 8.04805 3.70668 8.96662C3.65334 9.27995 3.61334 9.57995 3.57334 9.87328C2.94917 9.97445 2.38126 10.2941 1.97096 10.7752C1.56067 11.2564 1.33468 11.8676 1.33334 12.5V16.5866C1.33334 16.9402 1.47382 17.2794 1.72387 17.5294C1.97392 17.7795 2.31305 17.92 2.66668 17.92V12.5C2.66668 12.1463 2.80715 11.8072 3.0572 11.5571C3.30725 11.3071 3.64639 11.1666 4.00001 11.1666H16.4867C17.7716 11.1684 19.0033 11.6796 19.9118 12.5881C20.8204 13.4967 21.3316 14.7284 21.3333 16.0133V16.5H20C19.7184 15.8134 19.194 15.2545 18.5266 14.9299C17.8592 14.6054 17.0958 14.5379 16.3818 14.7404C15.6679 14.9429 15.0535 15.4011 14.6559 16.0277C14.2583 16.6542 14.1053 17.4053 14.2261 18.1375C14.3469 18.8696 14.7331 19.5317 15.3109 19.9973C15.8887 20.463 16.6178 20.6995 17.3589 20.6619C18.1 20.6243 18.8014 20.3151 19.3291 19.7934C19.8568 19.2717 20.1739 18.5739 20.22 17.8333H21.3333C21.687 17.8333 22.0261 17.6928 22.2762 17.4428C22.5262 17.1927 22.6667 16.8536 22.6667 16.5V16.0133C22.664 14.5746 22.16 13.1818 21.2413 12.0745C20.3227 10.9673 19.0468 10.2148 17.6333 9.94662ZM7.33334 9.83328H4.62001C4.62001 9.62662 4.68001 9.41328 4.72001 9.16662C4.83519 8.43426 5.13577 7.74353 5.59319 7.16009C6.0506 6.57666 6.64963 6.11992 7.33334 5.83328V9.83328ZM8.66668 9.83328V5.55328C9.91131 5.39166 11.1736 5.66483 12.24 6.32662C13.6958 7.2334 14.9523 8.4264 15.9333 9.83328H8.66668ZM17.2 19.42C16.8704 19.42 16.5481 19.3222 16.2741 19.1391C16 18.9559 15.7864 18.6956 15.6602 18.3911C15.5341 18.0865 15.5011 17.7514 15.5654 17.4281C15.6297 17.1048 15.7884 16.8079 16.0215 16.5748C16.2546 16.3417 16.5516 16.183 16.8749 16.1186C17.1982 16.0543 17.5333 16.0873 17.8378 16.2135C18.1424 16.3396 18.4027 16.5533 18.5858 16.8273C18.7689 17.1014 18.8667 17.4236 18.8667 17.7533C18.8667 18.1953 18.6911 18.6192 18.3785 18.9318C18.066 19.2444 17.642 19.42 17.2 19.42Z" fill="#666666"/>
<path d="M9.44666 16.4999C9.1651 15.8133 8.6406 15.2544 7.97325 14.9299C7.3059 14.6053 6.54242 14.5378 5.82849 14.7403C5.11457 14.9428 4.50018 15.401 4.10257 16.0276C3.70496 16.6542 3.55196 17.4052 3.67277 18.1374C3.79358 18.8696 4.17974 19.5316 4.75757 19.9973C5.33539 20.4629 6.06442 20.6995 6.80555 20.6619C7.54667 20.6242 8.24801 20.3151 8.77573 19.7934C9.30344 19.2716 9.62059 18.5739 9.66666 17.8332H13.2V17.6665C13.1868 17.2732 13.2317 16.8801 13.3333 16.4999H9.44666ZM6.66666 19.4199C6.33702 19.4199 6.01479 19.3221 5.74071 19.139C5.46663 18.9559 5.25301 18.6956 5.12686 18.391C5.00071 18.0865 4.96771 17.7514 5.03202 17.4281C5.09633 17.1048 5.25506 16.8078 5.48815 16.5747C5.72124 16.3416 6.01821 16.1829 6.34151 16.1186C6.66481 16.0543 6.99992 16.0873 7.30447 16.2134C7.60901 16.3396 7.86931 16.5532 8.05244 16.8273C8.23558 17.1013 8.33333 17.4236 8.33333 17.7532C8.33333 18.1952 8.15773 18.6192 7.84517 18.9317C7.53261 19.2443 7.10869 19.4199 6.66666 19.4199Z" fill="#666666"/>
</g>
<defs>
<clipPath id="clip0_527_888">
<rect width="24" height="24" fill="white" transform="translate(0 0.5)"/>
</clipPath>
</defs>
</svg>
