<svg width="25" height="24" viewBox="0 0 25 24" fill="none" xmlns="http://www.w3.org/2000/svg">
<path d="M5.57 4.50002L5.9075 5.16752L6.32 6.00002H9.5V9.75002H3.5V4.50002H5.57ZM6.035 3.00002H2.75C2.55109 3.00002 2.36032 3.07904 2.21967 3.21969C2.07902 3.36034 2 3.55111 2 3.75002V10.5C2 10.6989 2.07902 10.8897 2.21967 11.0303C2.36032 11.171 2.55109 11.25 2.75 11.25H10.25C10.4489 11.25 10.6397 11.171 10.7803 11.0303C10.921 10.8897 11 10.6989 11 10.5V5.25002C11 5.05111 10.921 4.86034 10.7803 4.71969C10.6397 4.57904 10.4489 4.50002 10.25 4.50002H7.25L6.71 3.41252C6.6471 3.28769 6.55058 3.18293 6.43131 3.11004C6.31204 3.03715 6.17477 2.99905 6.035 3.00002ZM17.57 4.50002L17.9075 5.16752L18.32 6.00002H21.5V9.75002H15.5V4.50002H17.57ZM18.035 3.00002H14.75C14.5511 3.00002 14.3603 3.07904 14.2197 3.21969C14.079 3.36034 14 3.55111 14 3.75002V10.5C14 10.6989 14.079 10.8897 14.2197 11.0303C14.3603 11.171 14.5511 11.25 14.75 11.25H22.25C22.4489 11.25 22.6397 11.171 22.7803 11.0303C22.921 10.8897 23 10.6989 23 10.5V5.25002C23 5.05111 22.921 4.86034 22.7803 4.71969C22.6397 4.57904 22.4489 4.50002 22.25 4.50002H19.25L18.71 3.41252C18.6471 3.28769 18.5506 3.18293 18.4313 3.11004C18.312 3.03715 18.1748 2.99905 18.035 3.00002ZM5.57 14.25L5.9075 14.9175L6.32 15.75H9.5V19.5H3.5V14.25H5.57ZM6.035 12.75H2.75C2.55109 12.75 2.36032 12.829 2.21967 12.9697C2.07902 13.1103 2 13.3011 2 13.5V20.25C2 20.4489 2.07902 20.6397 2.21967 20.7803C2.36032 20.921 2.55109 21 2.75 21H10.25C10.4489 21 10.6397 20.921 10.7803 20.7803C10.921 20.6397 11 20.4489 11 20.25V15C11 14.8011 10.921 14.6103 10.7803 14.4697C10.6397 14.329 10.4489 14.25 10.25 14.25H7.25L6.71 13.1625C6.6471 13.0377 6.55058 12.9329 6.43131 12.86C6.31204 12.7872 6.17477 12.749 6.035 12.75ZM17.57 14.25L17.9075 14.9175L18.32 15.75H21.5V19.5H15.5V14.25H17.57ZM18.035 12.75H14.75C14.5511 12.75 14.3603 12.829 14.2197 12.9697C14.079 13.1103 14 13.3011 14 13.5V20.25C14 20.4489 14.079 20.6397 14.2197 20.7803C14.3603 20.921 14.5511 21 14.75 21H22.25C22.4489 21 22.6397 20.921 22.7803 20.7803C22.921 20.6397 23 20.4489 23 20.25V15C23 14.8011 22.921 14.6103 22.7803 14.4697C22.6397 14.329 22.4489 14.25 22.25 14.25H19.25L18.71 13.1625C18.6471 13.0377 18.5506 12.9329 18.4313 12.86C18.312 12.7872 18.1748 12.749 18.035 12.75Z" fill="#EE8E32"/>
</svg>
