<svg width="41" height="40" viewBox="0 0 41 40" fill="none" xmlns="http://www.w3.org/2000/svg">
<path d="M29.6667 20C29.0036 20 28.3677 19.7366 27.8989 19.2678C27.4301 18.7989 27.1667 18.163 27.1667 17.5C27.1667 16.837 27.4301 16.2011 27.8989 15.7322C28.3677 15.2634 29.0036 15 29.6667 15C30.3297 15 30.9656 15.2634 31.4344 15.7322C31.9033 16.2011 32.1667 16.837 32.1667 17.5C32.1667 18.163 31.9033 18.7989 31.4344 19.2678C30.9656 19.7366 30.3297 20 29.6667 20ZM24.6667 13.3333C24.0036 13.3333 23.3677 13.0699 22.8989 12.6011C22.4301 12.1323 22.1667 11.4964 22.1667 10.8333C22.1667 10.1703 22.4301 9.53441 22.8989 9.06557C23.3677 8.59672 24.0036 8.33333 24.6667 8.33333C25.3297 8.33333 25.9656 8.59672 26.4344 9.06557C26.9033 9.53441 27.1667 10.1703 27.1667 10.8333C27.1667 11.4964 26.9033 12.1323 26.4344 12.6011C25.9656 13.0699 25.3297 13.3333 24.6667 13.3333ZM16.3333 13.3333C15.6703 13.3333 15.0344 13.0699 14.5656 12.6011C14.0967 12.1323 13.8333 11.4964 13.8333 10.8333C13.8333 10.1703 14.0967 9.53441 14.5656 9.06557C15.0344 8.59672 15.6703 8.33333 16.3333 8.33333C16.9964 8.33333 17.6323 8.59672 18.1011 9.06557C18.5699 9.53441 18.8333 10.1703 18.8333 10.8333C18.8333 11.4964 18.5699 12.1323 18.1011 12.6011C17.6323 13.0699 16.9964 13.3333 16.3333 13.3333ZM11.3333 20C10.6703 20 10.0344 19.7366 9.56557 19.2678C9.09672 18.7989 8.83333 18.163 8.83333 17.5C8.83333 16.837 9.09672 16.2011 9.56557 15.7322C10.0344 15.2634 10.6703 15 11.3333 15C11.9964 15 12.6323 15.2634 13.1011 15.7322C13.5699 16.2011 13.8333 16.837 13.8333 17.5C13.8333 18.163 13.5699 18.7989 13.1011 19.2678C12.6323 19.7366 11.9964 20 11.3333 20ZM20.5 5C16.5218 5 12.7064 6.58035 9.8934 9.3934C7.08035 12.2064 5.5 16.0218 5.5 20C5.5 23.9782 7.08035 27.7936 9.8934 30.6066C12.7064 33.4196 16.5218 35 20.5 35C21.163 35 21.7989 34.7366 22.2678 34.2678C22.7366 33.7989 23 33.163 23 32.5C23 31.85 22.75 31.2667 22.35 30.8333C21.9667 30.3833 21.7167 29.8 21.7167 29.1667C21.7167 28.5036 21.9801 27.8677 22.4489 27.3989C22.9177 26.9301 23.5536 26.6667 24.2167 26.6667H27.1667C29.3768 26.6667 31.4964 25.7887 33.0592 24.2259C34.622 22.6631 35.5 20.5435 35.5 18.3333C35.5 10.9667 28.7833 5 20.5 5Z" fill="#EE8E32"/>
</svg>
