<svg width="41" height="40" viewBox="0 0 41 40" fill="none" xmlns="http://www.w3.org/2000/svg">
<path d="M31.8451 18.03C29.0215 18.9219 25.0054 19.8502 20.5004 19.8503C15.9952 19.8503 11.9785 18.9203 9.15466 18.03L9.03259 17.9919L8.97595 18.1061L7.20935 21.6393C7.08274 21.892 7.01699 22.1712 7.01697 22.4538V26.6667C7.01697 27.1485 7.2085 27.6102 7.54919 27.9509C7.88988 28.2915 8.35157 28.4831 8.83337 28.4831H32.1664C32.6482 28.4831 33.1108 28.2916 33.4515 27.9509C33.792 27.6102 33.9838 27.1483 33.9838 26.6667V22.4528C33.9834 22.171 33.9167 21.8933 33.7904 21.6413L32.0238 18.1061L31.9672 17.9919L31.8451 18.03ZM13.0004 21.8171C13.6233 21.8172 14.2209 22.0641 14.6615 22.5046C15.1022 22.9453 15.35 23.5434 15.35 24.1667C15.35 24.7899 15.1022 25.3881 14.6615 25.8288C14.2209 26.2692 13.6233 26.5162 13.0004 26.5163C12.3772 26.5163 11.7789 26.2694 11.3383 25.8288C10.8975 25.3881 10.6498 24.7899 10.6498 24.1667C10.6498 23.5434 10.8975 22.9453 11.3383 22.5046C11.7789 22.064 12.3772 21.8171 13.0004 21.8171ZM28.0004 21.8171C28.6233 21.8172 29.2209 22.0641 29.6615 22.5046C30.1022 22.9453 30.35 23.5434 30.35 24.1667C30.35 24.7899 30.1022 25.3881 29.6615 25.8288C29.2209 26.2692 28.6233 26.5162 28.0004 26.5163C27.3772 26.5163 26.7789 26.2694 26.3383 25.8288C25.8975 25.3881 25.6498 24.7899 25.6498 24.1667C25.6498 23.5434 25.8975 22.9453 26.3383 22.5046C26.7789 22.064 27.3772 21.8171 28.0004 21.8171ZM14.2269 9.85028C13.8896 9.85046 13.5587 9.94433 13.2719 10.1218C12.9852 10.2991 12.7537 10.5527 12.6029 10.8542L10.4857 15.0827L10.4056 15.2419L10.5765 15.2936C13.1661 16.0715 16.6584 16.8171 20.5004 16.8171C24.3421 16.817 27.8335 16.0715 30.4213 15.2936L30.5922 15.2419L30.5121 15.0827L28.3978 10.8542C28.2471 10.5526 28.0147 10.2992 27.7279 10.1218C27.477 9.9666 27.1928 9.87477 26.8998 9.85419L26.7738 9.85028H14.2269ZM5.64978 30.3259L5.59998 30.2819C4.60703 29.3925 3.98376 28.1022 3.98376 26.6667V22.4538C3.98407 21.7013 4.1589 20.9588 4.49548 20.2858L6.08923 17.0954L6.1615 16.9509L6.01208 16.8893C5.61099 16.7234 5.21378 16.5463 4.82263 16.3581C4.64482 16.2695 4.48637 16.1465 4.35583 15.9968C4.22473 15.8463 4.12432 15.6713 4.06091 15.4821C3.99756 15.293 3.97177 15.0932 3.98572 14.8942C3.99971 14.6952 4.0537 14.5005 4.14294 14.322L4.14197 14.321C4.32578 13.9632 4.64374 13.6923 5.02576 13.5661C5.40846 13.4397 5.82565 13.4694 6.18689 13.6481H6.18884C6.5852 13.8385 6.98732 14.0151 7.3949 14.1774L7.52283 14.2292L7.58435 14.1052L9.88904 9.49677C10.2919 8.69143 10.9111 8.01408 11.6771 7.54071C12.4432 7.06729 13.3264 6.81711 14.2269 6.81708H26.7738C27.6741 6.8172 28.5567 7.06745 29.3226 7.54071C30.0886 8.01406 30.7079 8.69148 31.1107 9.49677L33.4154 14.1052L33.4779 14.2302L33.6068 14.1774C33.9118 14.0524 34.2184 13.9249 34.5209 13.7858L34.8217 13.6423C35.1817 13.4625 35.5991 13.4338 35.9808 13.5612C36.3623 13.6887 36.6781 13.9621 36.8578 14.322C37.0375 14.6819 37.0662 15.0985 36.9388 15.4802C36.8273 15.8141 36.6043 16.0978 36.309 16.2839L36.1781 16.3571C35.7691 16.5608 35.4716 16.6935 35.2777 16.7751C35.181 16.8158 35.1103 16.8444 35.0638 16.862C35.0406 16.8708 35.0231 16.8766 35.0121 16.8806C35.0066 16.8825 35.0029 16.8846 35.0004 16.8854L34.8334 16.9411L34.9105 17.0954L36.5043 20.2839C36.8421 20.9579 37.017 21.7003 37.017 22.4538V26.6667L37.0101 26.9225C36.9787 27.517 36.8377 28.1014 36.5941 28.6462C36.3155 29.2691 35.9084 29.827 35.3998 30.2819L35.35 30.3259V32.4997C35.35 33.123 35.1022 33.7211 34.6615 34.1618C34.2209 34.6023 33.6234 34.8502 33.0004 34.8503C32.3771 34.8503 31.779 34.6025 31.3383 34.1618C30.8975 33.7211 30.6498 33.123 30.6498 32.4997V31.5163H10.35V32.4997C10.35 33.123 10.1022 33.7211 9.6615 34.1618C9.22089 34.6023 8.62343 34.8502 8.00037 34.8503C7.37712 34.8503 6.77897 34.6025 6.33826 34.1618C5.89755 33.7211 5.64978 33.123 5.64978 32.4997V30.3259Z" fill="#EE8E32" stroke="#EE8E32" stroke-width="0.3"/>
</svg>
