<svg width="19" height="19" viewBox="0 0 19 19" fill="none" xmlns="http://www.w3.org/2000/svg">
<g clip-path="url(#clip0_527_908)">
<path d="M9.67578 6.74023L2.16113 14.2637C1.99121 14.4336 1.85938 14.6299 1.76562 14.8525C1.67188 15.0752 1.625 15.3096 1.625 15.5557C1.625 15.8018 1.67188 16.0361 1.76562 16.2588C1.85938 16.4814 1.99121 16.6748 2.16113 16.8389C2.33105 17.0029 2.52441 17.1318 2.74121 17.2256C2.95801 17.3193 3.19238 17.3691 3.44434 17.375C3.68457 17.375 3.91602 17.3281 4.13867 17.2344C4.36133 17.1406 4.56055 17.0088 4.73633 16.8389L9.5 12.084V13.6748L5.53613 17.6387C5.25488 17.9199 4.93555 18.1338 4.57812 18.2803C4.2207 18.4268 3.84277 18.5 3.44434 18.5C3.04004 18.5 2.66211 18.4238 2.31055 18.2715C1.95898 18.1191 1.64551 17.9053 1.37012 17.6299C1.09473 17.3545 0.883789 17.0439 0.737305 16.6982C0.59082 16.3525 0.511719 15.9717 0.5 15.5557C0.5 15.1514 0.573242 14.7734 0.719727 14.4219C0.866211 14.0703 1.08008 13.751 1.36133 13.4639L8.44531 6.37988C8.42188 6.24512 8.4043 6.11035 8.39258 5.97559C8.38086 5.84082 8.375 5.70312 8.375 5.5625C8.375 5.09961 8.43359 4.6543 8.55078 4.22656C8.66797 3.79883 8.83789 3.39453 9.06055 3.01367C9.2832 2.63281 9.5498 2.29004 9.86035 1.98535C10.1709 1.68066 10.5137 1.41699 10.8887 1.19434C11.2637 0.97168 11.665 0.801758 12.0928 0.68457C12.5205 0.567383 12.9688 0.505859 13.4375 0.5C13.7539 0.5 14.0439 0.523437 14.3076 0.570312C14.5713 0.617188 14.8291 0.6875 15.0811 0.78125C15.333 0.875 15.5762 0.986328 15.8105 1.11523C16.0449 1.24414 16.2969 1.38477 16.5664 1.53711L13.1035 5L14 5.89648L17.4629 2.43359C17.6035 2.67969 17.7354 2.92578 17.8584 3.17188C17.9814 3.41797 18.0928 3.67285 18.1924 3.93652C18.292 4.2002 18.3711 4.46387 18.4297 4.72754C18.4883 4.99121 18.5176 5.27246 18.5176 5.57129C18.5176 5.95801 18.4707 6.3418 18.377 6.72266C18.2832 7.10352 18.1455 7.4668 17.9639 7.8125C17.7822 8.1582 17.5713 8.4834 17.3311 8.78809C17.0908 9.09277 16.8125 9.3623 16.4961 9.59668C16.2266 9.49121 15.9512 9.40918 15.6699 9.35059C15.3887 9.29199 15.1016 9.25684 14.8086 9.24512C15.1895 9.10449 15.5381 8.91113 15.8545 8.66504C16.1709 8.41895 16.4404 8.1377 16.6631 7.82129C16.8857 7.50488 17.0615 7.15625 17.1904 6.77539C17.3193 6.39453 17.3809 5.99902 17.375 5.58887C17.375 5.14941 17.3047 4.72754 17.1641 4.32324L14 7.47852L11.5215 5L14.6768 1.83594C14.2783 1.69531 13.8652 1.625 13.4375 1.625C12.8926 1.625 12.3828 1.72754 11.9082 1.93262C11.4336 2.1377 11.0176 2.41895 10.6602 2.77637C10.3027 3.13379 10.0215 3.5498 9.81641 4.02441C9.61133 4.49902 9.50586 5.01172 9.5 5.5625C9.5 5.76172 9.51758 5.95801 9.55273 6.15137C9.58789 6.34473 9.62891 6.54102 9.67578 6.74023ZM14.5625 10.625C15.1074 10.625 15.6172 10.7275 16.0918 10.9326C16.5664 11.1377 16.9854 11.4189 17.3486 11.7764C17.7119 12.1338 17.9932 12.5498 18.1924 13.0244C18.3916 13.499 18.4941 14.0117 18.5 14.5625C18.5 15.1074 18.3975 15.6172 18.1924 16.0918C17.9873 16.5664 17.7061 16.9854 17.3486 17.3486C16.9912 17.7119 16.5752 17.9932 16.1006 18.1924C15.626 18.3916 15.1133 18.4941 14.5625 18.5C14.0176 18.5 13.5078 18.3975 13.0332 18.1924C12.5586 17.9873 12.1396 17.7061 11.7764 17.3486C11.4131 16.9912 11.1318 16.5752 10.9326 16.1006C10.7334 15.626 10.6309 15.1133 10.625 14.5625C10.625 14.0176 10.7275 13.5078 10.9326 13.0332C11.1377 12.5586 11.4189 12.1396 11.7764 11.7764C12.1338 11.4131 12.5498 11.1318 13.0244 10.9326C13.499 10.7334 14.0117 10.6309 14.5625 10.625ZM11.75 14.5625C11.75 14.9492 11.8232 15.3125 11.9697 15.6523C12.1162 15.9922 12.3154 16.291 12.5674 16.5488C12.8193 16.8066 13.1182 17.0088 13.4639 17.1553C13.8096 17.3018 14.1758 17.375 14.5625 17.375C14.8379 17.375 15.1074 17.3369 15.3711 17.2607C15.6348 17.1846 15.8809 17.0674 16.1094 16.9092L12.2158 13.0156C12.0635 13.2441 11.9492 13.4902 11.873 13.7539C11.7969 14.0176 11.7559 14.2871 11.75 14.5625ZM16.9092 16.1094C17.0615 15.8809 17.1758 15.6348 17.252 15.3711C17.3281 15.1074 17.3691 14.8379 17.375 14.5625C17.375 14.1758 17.3018 13.8125 17.1553 13.4727C17.0088 13.1328 16.8066 12.8369 16.5488 12.585C16.291 12.333 15.9922 12.1309 15.6523 11.9785C15.3125 11.8262 14.9492 11.75 14.5625 11.75C14.2871 11.75 14.0176 11.7881 13.7539 11.8643C13.4902 11.9404 13.2441 12.0576 13.0156 12.2158L16.9092 16.1094Z" fill="#666666"/>
</g>
<defs>
<clipPath id="clip0_527_908">
<rect width="18" height="18" fill="white" transform="translate(0.5 0.5)"/>
</clipPath>
</defs>
</svg>
