<svg width="41" height="40" viewBox="0 0 41 40" fill="none" xmlns="http://www.w3.org/2000/svg">
<path d="M26.9766 26.3108L28.8683 27.4033M29.1158 19.2608C29.1158 25.9867 23.6633 31.4392 16.9366 31.4392C10.21 31.4392 4.7583 25.9867 4.7583 19.2608C4.7583 12.535 10.2108 7.08167 16.9366 7.08167C23.6625 7.08167 29.1158 12.535 29.1158 19.2608ZM28.5633 28.0167L29.01 27.2417C29.1224 27.046 29.2725 26.8744 29.4514 26.7368C29.6304 26.5993 29.8347 26.4984 30.0528 26.44C30.2708 26.3816 30.4982 26.3669 30.722 26.3966C30.9457 26.4264 31.1614 26.5 31.3566 26.6133L35.3816 28.9375C35.5772 29.05 35.7487 29.2 35.8862 29.3789C36.0237 29.5577 36.1245 29.762 36.1829 29.98C36.2412 30.1979 36.256 30.4252 36.2263 30.6489C36.1967 30.8725 36.1231 31.0881 36.01 31.2833L35.5633 32.0583C35.4508 32.254 35.3008 32.4256 35.1218 32.5632C34.9429 32.7007 34.7385 32.8016 34.5205 32.86C34.3024 32.9183 34.075 32.9331 33.8513 32.9034C33.6275 32.8736 33.4118 32.8 33.2166 32.6867L29.1916 30.3625C28.996 30.25 28.8246 30.1 28.6871 29.9211C28.5496 29.7423 28.4488 29.538 28.3904 29.32C28.332 29.1021 28.3172 28.8748 28.3469 28.6511C28.3766 28.4275 28.4501 28.2118 28.5633 28.0167Z" stroke="#EE8E32" stroke-width="2" stroke-linecap="round" stroke-linejoin="round"/>
<path d="M16.8999 16.55C17.6281 16.55 18.3264 16.8392 18.8412 17.3541C19.3561 17.869 19.6453 18.5673 19.6453 19.2954C19.6453 20.0235 19.3561 20.7218 18.8412 21.2367C18.3264 21.7516 17.6281 22.0408 16.8999 22.0408C16.5395 22.0408 16.1826 21.9698 15.8496 21.8319C15.5166 21.6939 15.214 21.4917 14.9592 21.2368C14.7044 20.9819 14.5023 20.6793 14.3644 20.3462C14.2266 20.0132 14.1557 19.6563 14.1558 19.2958C14.1557 18.9355 14.2265 18.5786 14.3643 18.2456C14.5021 17.9126 14.7042 17.6101 14.9589 17.3552C15.2137 17.1003 15.5161 16.898 15.849 16.76C16.1819 16.622 16.5387 16.5509 16.8991 16.5508" stroke="#EE8E32" stroke-width="1.38" stroke-linecap="round" stroke-linejoin="round"/>
<path d="M14.8783 10.4341L14.4449 12.6616C13.726 12.9277 13.0569 13.3128 12.4658 13.8008L10.3274 13.0633L8.2666 16.6316L9.9791 18.1216C9.8429 18.8758 9.8429 19.6483 9.9791 20.4025L8.2666 21.8916L10.3274 25.4583L12.4641 24.7216C13.0552 25.211 13.7253 25.5959 14.4458 25.86L14.8783 28.0866H18.9958L19.4208 25.8825C20.1375 25.5961 20.8074 25.2043 21.4083 24.72L23.5466 25.4575L25.6058 21.8908L23.8949 20.4C24.0325 19.6473 24.0325 18.876 23.8949 18.1233L25.6074 16.63L23.5466 13.0633L21.4099 13.8C20.8188 13.311 20.1487 12.9263 19.4283 12.6625L18.9958 10.435L14.8783 10.4341Z" stroke="#EE8E32" stroke-width="2" stroke-linecap="round" stroke-linejoin="round"/>
</svg>
