<svg width="17" height="16" viewBox="0 0 17 16" fill="none" xmlns="http://www.w3.org/2000/svg">
<path d="M3.88 3.00001L4.105 3.44501L4.38 4.00001H6.5V6.50001H2.5V3.00001H3.88ZM4.19 2.00001H2C1.86739 2.00001 1.74021 2.05269 1.64645 2.14646C1.55268 2.24023 1.5 2.3674 1.5 2.50001V7.00001C1.5 7.13262 1.55268 7.2598 1.64645 7.35357C1.74021 7.44733 1.86739 7.50001 2 7.50001H7C7.13261 7.50001 7.25979 7.44733 7.35355 7.35357C7.44732 7.2598 7.5 7.13262 7.5 7.00001V3.50001C7.5 3.3674 7.44732 3.24023 7.35355 3.14646C7.25979 3.05269 7.13261 3.00001 7 3.00001H5L4.64 2.27501C4.59807 2.19179 4.53372 2.12195 4.4542 2.07336C4.37469 2.02477 4.28318 1.99936 4.19 2.00001ZM11.88 3.00001L12.105 3.44501L12.38 4.00001H14.5V6.50001H10.5V3.00001H11.88ZM12.19 2.00001H10C9.86739 2.00001 9.74021 2.05269 9.64645 2.14646C9.55268 2.24023 9.5 2.3674 9.5 2.50001V7.00001C9.5 7.13262 9.55268 7.2598 9.64645 7.35357C9.74021 7.44733 9.86739 7.50001 10 7.50001H15C15.1326 7.50001 15.2598 7.44733 15.3536 7.35357C15.4473 7.2598 15.5 7.13262 15.5 7.00001V3.50001C15.5 3.3674 15.4473 3.24023 15.3536 3.14646C15.2598 3.05269 15.1326 3.00001 15 3.00001H13L12.64 2.27501C12.5981 2.19179 12.5337 2.12195 12.4542 2.07336C12.3747 2.02477 12.2832 1.99936 12.19 2.00001ZM3.88 9.50001L4.105 9.94501L4.38 10.5H6.5V13H2.5V9.50001H3.88ZM4.19 8.50001H2C1.86739 8.50001 1.74021 8.55269 1.64645 8.64646C1.55268 8.74023 1.5 8.8674 1.5 9.00001V13.5C1.5 13.6326 1.55268 13.7598 1.64645 13.8536C1.74021 13.9473 1.86739 14 2 14H7C7.13261 14 7.25979 13.9473 7.35355 13.8536C7.44732 13.7598 7.5 13.6326 7.5 13.5V10C7.5 9.8674 7.44732 9.74023 7.35355 9.64646C7.25979 9.55269 7.13261 9.50001 7 9.50001H5L4.64 8.77501C4.59807 8.69179 4.53372 8.62195 4.4542 8.57336C4.37469 8.52477 4.28318 8.49936 4.19 8.50001ZM11.88 9.50001L12.105 9.94501L12.38 10.5H14.5V13H10.5V9.50001H11.88ZM12.19 8.50001H10C9.86739 8.50001 9.74021 8.55269 9.64645 8.64646C9.55268 8.74023 9.5 8.8674 9.5 9.00001V13.5C9.5 13.6326 9.55268 13.7598 9.64645 13.8536C9.74021 13.9473 9.86739 14 10 14H15C15.1326 14 15.2598 13.9473 15.3536 13.8536C15.4473 13.7598 15.5 13.6326 15.5 13.5V10C15.5 9.8674 15.4473 9.74023 15.3536 9.64646C15.2598 9.55269 15.1326 9.50001 15 9.50001H13L12.64 8.77501C12.5981 8.69179 12.5337 8.62195 12.4542 8.57336C12.3747 8.52477 12.2832 8.49936 12.19 8.50001Z" fill="#666666"/>
</svg>
