<svg width="41" height="40" viewBox="0 0 41 40" fill="none" xmlns="http://www.w3.org/2000/svg">
<g clip-path="url(#clip0_541_2016)">
<path d="M24.6667 17.5L17.0567 20L15.5 18.4433L22.3867 12.5H25.5L30.5 15L34.6667 15.8333V26.6667L31.3333 27.5H23.6233" stroke="#EE8E32" stroke-width="2" stroke-miterlimit="10" stroke-linecap="round" stroke-linejoin="round"/>
<path d="M6.33325 25L10.6616 25.8334L17.2483 32.4184L20.0966 31.9284L20.5866 29.08L23.4349 28.5884L23.9266 25.74L26.7733 25.25L27.2649 22.4017L22.9333 18.07M19.6899 14.8267L16.5299 11.6667L10.4999 14.1667L6.33325 15M6.33325 12.5H1.33325V27.5H6.33325V12.5ZM39.6666 14.1667H34.6666V29.1667H39.6666V14.1667Z" stroke="#EE8E32" stroke-width="2" stroke-miterlimit="10" stroke-linejoin="round"/>
</g>
<defs>
<clipPath id="clip0_541_2016">
<rect width="40" height="40" fill="white" transform="translate(0.5)"/>
</clipPath>
</defs>
</svg>
