<svg width="20" height="20" viewBox="0 0 20 20" fill="none" xmlns="http://www.w3.org/2000/svg">
<path fill-rule="evenodd" clip-rule="evenodd" d="M15.0007 1.66669C15.4427 1.66669 15.8666 1.84228 16.1792 2.15484C16.4917 2.4674 16.6673 2.89133 16.6673 3.33335V11.6667H11.2507C10.9191 11.6667 10.6012 11.7984 10.3668 12.0328C10.1323 12.2672 10.0007 12.5852 10.0007 12.9167V18.3334H5.00065C4.55862 18.3334 4.1347 18.1578 3.82214 17.8452C3.50958 17.5326 3.33398 17.1087 3.33398 16.6667V3.33335C3.33398 2.89133 3.50958 2.4674 3.82214 2.15484C4.1347 1.84228 4.55862 1.66669 5.00065 1.66669H15.0007ZM16.6315 13.3334C16.5645 13.6491 16.4073 13.9386 16.179 14.1667L12.5007 17.845C12.2725 18.0734 11.983 18.2306 11.6673 18.2975V13.3334H16.6315ZM8.33398 9.16669H7.50065C7.27964 9.16669 7.06768 9.25448 6.9114 9.41076C6.75512 9.56705 6.66732 9.77901 6.66732 10C6.66732 10.221 6.75512 10.433 6.9114 10.5893C7.06768 10.7456 7.27964 10.8334 7.50065 10.8334H8.33398C8.555 10.8334 8.76696 10.7456 8.92324 10.5893C9.07952 10.433 9.16732 10.221 9.16732 10C9.16732 9.77901 9.07952 9.56705 8.92324 9.41076C8.76696 9.25448 8.555 9.16669 8.33398 9.16669ZM12.5007 5.83335H7.50065C7.27964 5.83335 7.06768 5.92115 6.9114 6.07743C6.75512 6.23371 6.66732 6.44567 6.66732 6.66669C6.66732 6.8877 6.75512 7.09966 6.9114 7.25594C7.06768 7.41222 7.27964 7.50002 7.50065 7.50002H12.5007C12.7217 7.50002 12.9336 7.41222 13.0899 7.25594C13.2462 7.09966 13.334 6.8877 13.334 6.66669C13.334 6.44567 13.2462 6.23371 13.0899 6.07743C12.9336 5.92115 12.7217 5.83335 12.5007 5.83335Z" fill="#666666"/>
</svg>
