<svg width="20" height="20" viewBox="0 0 20 20" fill="none" xmlns="http://www.w3.org/2000/svg">
<path fill-rule="evenodd" clip-rule="evenodd" d="M3.125 2.8125C3.125 1.94917 3.825 1.25 4.6875 1.25H7.5C8.3288 1.25 9.12366 1.57924 9.70971 2.16529C10.2958 2.75134 10.625 3.5462 10.625 4.375V5.9375C10.625 6.80083 11.325 7.5 12.1875 7.5H13.75C14.5788 7.5 15.3737 7.82924 15.9597 8.41529C16.5458 9.00134 16.875 9.7962 16.875 10.625V17.1875C16.875 18.05 16.175 18.75 15.3125 18.75H4.6875C4.2731 18.75 3.87567 18.5854 3.58265 18.2924C3.28962 17.9993 3.125 17.6019 3.125 17.1875V2.8125ZM11.875 4.375C11.8765 3.32379 11.4979 2.30747 10.8092 1.51333C12.2035 1.88013 13.4754 2.61061 14.4949 3.63009C15.5144 4.64958 16.2449 5.9215 16.6117 7.31583C15.8175 6.62707 14.8012 6.24854 13.75 6.25H12.1875C12.1046 6.25 12.0251 6.21708 11.9665 6.15847C11.9079 6.09987 11.875 6.02038 11.875 5.9375V4.375ZM10 8.75C10.1658 8.75 10.3247 8.81585 10.4419 8.93306C10.5592 9.05027 10.625 9.20924 10.625 9.375V9.39833C11.0996 9.43457 11.57 9.51265 12.0308 9.63167C12.1123 9.6502 12.1893 9.68489 12.2571 9.73369C12.325 9.78248 12.3823 9.84439 12.4258 9.91574C12.4694 9.9871 12.4981 10.0665 12.5104 10.1491C12.5227 10.2318 12.5183 10.3161 12.4975 10.397C12.4766 10.4779 12.4397 10.5539 12.389 10.6203C12.3383 10.6867 12.2748 10.7423 12.2023 10.7838C12.1297 10.8252 12.0496 10.8517 11.9666 10.8617C11.8836 10.8716 11.7995 10.8648 11.7192 10.8417C11.3603 10.7486 10.9943 10.6856 10.625 10.6533V12.0533L11.4325 12.33C11.9908 12.5217 12.5 13.0383 12.5 13.75C12.5 13.8817 12.4944 14.0117 12.4833 14.14C12.4142 14.9158 11.7917 15.4583 11.0925 15.5525C10.9372 15.5733 10.7813 15.5897 10.625 15.6017V15.625C10.625 15.7908 10.5592 15.9497 10.4419 16.0669C10.3247 16.1842 10.1658 16.25 10 16.25C9.83424 16.25 9.67527 16.1842 9.55806 16.0669C9.44085 15.9497 9.375 15.7908 9.375 15.625V15.6008C8.90048 15.5651 8.43005 15.4876 7.96917 15.3692C7.88966 15.3487 7.81497 15.3128 7.74935 15.2634C7.68372 15.2141 7.62846 15.1523 7.58672 15.0817C7.5024 14.9389 7.47825 14.7685 7.51958 14.6079C7.56091 14.4473 7.66433 14.3098 7.8071 14.2255C7.94986 14.1412 8.12027 14.117 8.28083 14.1583C8.63583 14.2506 9.00056 14.3133 9.375 14.3467V12.9467L8.56833 12.67C8.01 12.4783 7.5 11.9617 7.5 11.25C7.5 11.1183 7.50556 10.9883 7.51667 10.86C7.58583 10.0842 8.20917 9.54167 8.90833 9.44833C9.06278 9.42778 9.21833 9.41111 9.375 9.39833V9.375C9.375 9.20924 9.44085 9.05027 9.55806 8.93306C9.67527 8.81585 9.83424 8.75 10 8.75ZM9.075 10.6867C9.17389 10.6733 9.27389 10.6622 9.375 10.6533V11.625L8.97333 11.4875C8.8 11.4275 8.75 11.3117 8.75 11.25C8.75 11.1556 8.75417 11.0622 8.7625 10.97C8.77333 10.8483 8.87917 10.7125 9.07417 10.6867M10.6242 14.3467V13.375L11.0258 13.5125C11.1992 13.5725 11.2492 13.6883 11.2492 13.75C11.2492 13.8444 11.245 13.9378 11.2367 14.03C11.2267 14.1517 11.12 14.2875 10.925 14.3133C10.825 14.3267 10.7247 14.3378 10.6242 14.3467Z" fill="#1B1C37"/>
</svg>
