<svg width="23" height="23" viewBox="0 0 23 23" fill="none" xmlns="http://www.w3.org/2000/svg">
<path d="M17 2.21875H10.4098C10.2291 2.21829 10.0502 2.25364 9.8833 2.32277C9.71642 2.3919 9.5649 2.49344 9.4375 2.6215L4.684 7.375C4.55594 7.5024 4.4544 7.65392 4.38527 7.8208C4.31614 7.98769 4.28079 8.16662 4.28125 8.34726V19.75C4.28166 20.1146 4.42666 20.464 4.68444 20.7218C4.94221 20.9796 5.29171 21.1246 5.65625 21.125H17C17.3645 21.1246 17.714 20.9796 17.9718 20.7218C18.2296 20.464 18.3746 20.1146 18.375 19.75V3.59375C18.3746 3.22921 18.2296 2.87971 17.9718 2.62193C17.714 2.36416 17.3645 2.21916 17 2.21875ZM17 19.75H5.65625V8.34726L10.4098 3.59375H17V19.75Z" fill="#666666"/>
<path d="M9.4375 18.375H15.625V9.78125H9.4375V18.375ZM10.8125 11.1562H14.25V17H10.8125V11.1562Z" fill="#666666"/>
</svg>
