<svg width="20" height="20" viewBox="0 0 20 20" fill="none" xmlns="http://www.w3.org/2000/svg">
<path d="M4.80451 1C3.80921 1 3 1.9427 3 3.10219V15.7153C3 16.8748 3.80921 17.8175 4.80451 17.8175H7.06015V14.1387C7.06015 12.9792 7.86936 12.0365 8.86466 12.0365H13.8271V6.60037C13.8271 6.04197 13.6382 5.50657 13.2998 5.11241L10.2942 1.61423C9.95583 1.22007 9.49906 1 9.01974 1H4.80451ZM12.1776 6.78102H9.54135C9.16635 6.78102 8.86466 6.42956 8.86466 5.9927V2.92153L12.1776 6.78102ZM8.86466 13.4818C8.55451 13.4818 8.30075 13.7774 8.30075 14.1387V18.3431C8.30075 18.7044 8.55451 19 8.86466 19C9.17481 19 9.42857 18.7044 9.42857 18.3431V17.4234H9.76692C10.7002 17.4234 11.4586 16.5398 11.4586 15.4526C11.4586 14.3653 10.7002 13.4818 9.76692 13.4818H8.86466ZM9.76692 16.1095H9.42857V14.7956H9.76692C10.0771 14.7956 10.3308 15.0912 10.3308 15.4526C10.3308 15.8139 10.0771 16.1095 9.76692 16.1095ZM12.4737 13.4818C12.1635 13.4818 11.9098 13.7774 11.9098 14.1387V18.3431C11.9098 18.7044 12.1635 19 12.4737 19H13.3759C14.1852 19 14.8421 18.2347 14.8421 17.292V15.1898C14.8421 14.2471 14.1852 13.4818 13.3759 13.4818H12.4737ZM13.0376 17.6861V14.7956H13.3759C13.562 14.7956 13.7143 14.973 13.7143 15.1898V17.292C13.7143 17.5088 13.562 17.6861 13.3759 17.6861H13.0376ZM15.5188 14.1387V18.3431C15.5188 18.7044 15.7726 19 16.0827 19C16.3929 19 16.6466 18.7044 16.6466 18.3431V16.8978H17.4361C17.7462 16.8978 18 16.6022 18 16.2409C18 15.8796 17.7462 15.5839 17.4361 15.5839H16.6466V14.7956H17.4361C17.7462 14.7956 18 14.5 18 14.1387C18 13.7774 17.7462 13.4818 17.4361 13.4818H16.0827C15.7726 13.4818 15.5188 13.7774 15.5188 14.1387Z" fill="#EE8E32"/>
</svg>
