<svg width="20" height="20" viewBox="0 0 20 20" fill="none" xmlns="http://www.w3.org/2000/svg">
<path d="M6.5 1C5.39688 1 4.5 2.00898 4.5 3.25V16.75C4.5 17.991 5.39688 19 6.5 19H14.5C15.6031 19 16.5 17.991 16.5 16.75V6.625H12.5C11.9469 6.625 11.5 6.12227 11.5 5.5V1H6.5ZM12.5 1V5.5H16.5L12.5 1ZM7 3.25H9C9.275 3.25 9.5 3.50313 9.5 3.8125C9.5 4.12188 9.275 4.375 9 4.375H7C6.725 4.375 6.5 4.12188 6.5 3.8125C6.5 3.50313 6.725 3.25 7 3.25ZM7 5.5H9C9.275 5.5 9.5 5.75313 9.5 6.0625C9.5 6.37188 9.275 6.625 9 6.625H7C6.725 6.625 6.5 6.37188 6.5 6.0625C6.5 5.75313 6.725 5.5 7 5.5ZM8.69375 14.4227C8.50313 15.1363 7.91875 15.625 7.25625 15.625H7C6.725 15.625 6.5 15.3719 6.5 15.0625C6.5 14.7531 6.725 14.5 7 14.5H7.25625C7.47812 14.5 7.67188 14.3383 7.73438 14.0992L8.2 12.359C8.30625 11.9617 8.63125 11.6875 9 11.6875C9.36875 11.6875 9.69375 11.9582 9.8 12.359L10.1625 13.716C10.3938 13.498 10.6875 13.375 11 13.375C11.4969 13.375 11.95 13.6914 12.1719 14.1906L12.3094 14.5H14C14.275 14.5 14.5 14.7531 14.5 15.0625C14.5 15.3719 14.275 15.625 14 15.625H12C11.8094 15.625 11.6375 15.5055 11.5531 15.3156L11.2781 14.6934C11.225 14.5738 11.1188 14.5 11.0031 14.5C10.8875 14.5 10.7781 14.5738 10.7281 14.6934L10.4531 15.3156C10.3625 15.523 10.1656 15.6461 9.9625 15.625C9.75938 15.6039 9.58437 15.4457 9.52812 15.2277L9 13.2695L8.69375 14.4227Z" fill="#4C50A2"/>
</svg>
