<svg width="20" height="21" viewBox="0 0 20 21" fill="none" xmlns="http://www.w3.org/2000/svg">
<path d="M7.38091 10.9217C5.30841 9.37167 3.83007 7.66667 3.02257 6.70833C2.77257 6.41167 2.69091 6.19417 2.64174 5.81167C2.47341 4.50167 2.38924 3.84667 2.77341 3.42333C3.15757 3 3.83674 3 5.19507 3H14.8051C16.1634 3 16.8426 3 17.2267 3.4225C17.6109 3.84583 17.5267 4.50083 17.3584 5.81083C17.3084 6.19333 17.2267 6.41083 16.9776 6.7075C16.1692 7.6675 14.6884 9.37583 12.6109 10.9283C12.5148 11.0031 12.4354 11.0971 12.3777 11.2042C12.3201 11.3114 12.2854 11.4295 12.2759 11.5508C12.0701 13.8267 11.8801 15.0733 11.7617 15.7033C11.5709 16.7217 10.1284 17.3342 9.35507 17.88C8.89507 18.205 8.33674 17.8183 8.27757 17.315C8.0563 15.3971 7.86905 13.4754 7.71591 11.5508C7.70735 11.4283 7.67309 11.309 7.61538 11.2006C7.55766 11.0922 7.47777 10.9972 7.38091 10.9217Z" stroke="#666666" stroke-width="1.5" stroke-linecap="round" stroke-linejoin="round"/>
</svg>
