<svg width="52" height="52" viewBox="0 0 52 52" fill="none" xmlns="http://www.w3.org/2000/svg">
<path d="M12.9388 23.526H6.94259V25.3054H11.196C10.9848 27.7997 8.90884 28.8641 6.95071 28.8641C5.69011 28.8641 4.48113 28.3633 3.58975 27.4719C2.69836 26.5806 2.19759 25.3716 2.19759 24.111C2.19759 22.8504 2.69836 21.6414 3.58975 20.75C4.48113 19.8586 5.69011 19.3579 6.95071 19.3579C8.14558 19.356 9.29459 19.8176 10.156 20.6457L11.4032 19.3538C10.1983 18.1895 8.58137 17.5497 6.90603 17.5744C6.04763 17.5806 5.19885 17.7557 4.40815 18.0899C3.61744 18.424 2.9003 18.9107 2.29766 19.522C1.69502 20.1333 1.2187 20.8573 0.89587 21.6527C0.573046 22.4481 0.410047 23.2993 0.416183 24.1577C0.422318 25.0161 0.597466 25.8649 0.931627 26.6556C1.26579 27.4463 1.75242 28.1634 2.36373 28.7661C2.97505 29.3687 3.69907 29.845 4.49447 30.1679C5.28987 30.4907 6.14107 30.6537 6.99946 30.6475C10.4973 30.6475 13.0607 28.2507 13.0607 24.7041C13.0684 24.3085 13.0316 23.9133 12.951 23.526H12.9388Z" fill="#4885ED"/>
<path d="M17.8508 22.2383C17.0214 22.2415 16.2115 22.4902 15.5232 22.953C14.835 23.4158 14.2991 24.072 13.9832 24.8389C13.6672 25.6058 13.5854 26.4491 13.748 27.2624C13.9106 28.0757 14.3104 28.8227 14.8968 29.4092C15.4833 29.9957 16.2303 30.3954 17.0436 30.558C17.857 30.7206 18.7002 30.6388 19.4671 30.3229C20.234 30.007 20.8902 29.4711 21.353 28.7828C21.8158 28.0945 22.0645 27.2846 22.0677 26.4552C22.0765 25.899 21.9734 25.3467 21.7646 24.8311C21.5558 24.3155 21.2455 23.8472 20.8522 23.4538C20.4588 23.0605 19.9905 22.7502 19.4749 22.5414C18.9593 22.3326 18.407 22.2295 17.8508 22.2383ZM17.8752 23.8877C18.3865 23.8576 18.895 23.9818 19.3348 24.2441C19.7746 24.5065 20.1254 24.895 20.3417 25.3592C20.558 25.8234 20.6299 26.3419 20.5479 26.8475C20.466 27.353 20.234 27.8222 19.8821 28.1943C19.5302 28.5664 19.0747 28.8242 18.5745 28.9342C18.0743 29.0442 17.5526 29.0014 17.0771 28.8113C16.6015 28.6213 16.1941 28.2927 15.9076 27.8682C15.621 27.4437 15.4687 26.9429 15.4702 26.4308C15.4532 26.104 15.5027 25.7771 15.6157 25.4699C15.7288 25.1628 15.903 24.8818 16.1279 24.644C16.3528 24.4062 16.6236 24.2166 16.924 24.0866C17.2243 23.9565 17.5479 23.8889 17.8752 23.8877Z" fill="#DB3236"/>
<path d="M27.04 22.2382C26.2104 22.2407 25.4001 22.4887 24.7113 22.951C24.0224 23.4133 23.4859 24.0692 23.1694 24.8361C22.8528 25.6029 22.7704 26.4463 22.9326 27.2599C23.0947 28.0735 23.4941 28.8208 24.0805 29.4077C24.6668 29.9946 25.4138 30.3947 26.2272 30.5577C27.0406 30.7206 27.8841 30.639 28.6512 30.3232C29.4184 30.0074 30.0748 29.4715 30.5378 28.7832C31.0008 28.0948 31.2496 27.2847 31.2528 26.4551C31.2615 25.8993 31.1586 25.3473 30.95 24.832C30.7415 24.3167 30.4316 23.8485 30.0387 23.4553C29.6458 23.062 29.1779 22.7516 28.6628 22.5426C28.1477 22.3335 27.5958 22.23 27.04 22.2382ZM27.0643 23.8876C27.5756 23.8575 28.0841 23.9817 28.5239 24.2441C28.9637 24.5065 29.3145 24.895 29.5308 25.3592C29.7471 25.8234 29.819 26.3419 29.737 26.8474C29.6551 27.3529 29.4231 27.8222 29.0712 28.1943C28.7194 28.5664 28.2638 28.8241 27.7636 28.9342C27.2634 29.0442 26.7417 29.0014 26.2662 28.8113C25.7907 28.6212 25.3832 28.2926 25.0967 27.8681C24.8102 27.4437 24.6578 26.9429 24.6593 26.4307C24.6423 26.1039 24.6918 25.777 24.8048 25.4699C24.9179 25.1627 25.0921 24.8817 25.317 24.6439C25.5419 24.4061 25.8127 24.2165 26.1131 24.0865C26.4134 23.9565 26.7371 23.8888 27.0643 23.8876Z" fill="#F4C20D"/>
<path d="M36.0468 22.2422C33.788 22.2422 32.0127 24.2206 32.0127 26.4387C31.996 27.5227 32.4048 28.57 33.1514 29.356C33.8979 30.142 34.9228 30.6042 36.0061 30.6434C36.4433 30.6672 36.8799 30.5873 37.2802 30.41C37.6806 30.2328 38.0333 29.9634 38.3096 29.6237V30.4362C38.3096 31.8865 37.428 32.7519 36.0996 32.7519C35.6363 32.748 35.1847 32.606 34.8025 32.344C34.4204 32.082 34.1252 31.712 33.9546 31.2812L32.3296 31.9556C32.6439 32.6955 33.1706 33.3256 33.8432 33.766C34.5157 34.2064 35.3038 34.4374 36.1077 34.4297C38.3543 34.4297 40.0646 33.0159 40.0646 30.0503V22.494H38.3136V23.205C38.0265 22.8919 37.6756 22.6439 37.2846 22.4779C36.8935 22.3118 36.4715 22.2314 36.0468 22.2422ZM36.2093 23.8875C37.3183 23.8875 38.4518 24.834 38.4518 26.4469C38.4518 28.0597 37.3183 28.994 36.1849 28.994C35.8644 28.9859 35.5488 28.9133 35.2569 28.7806C34.965 28.6479 34.7029 28.4578 34.486 28.2216C34.2692 27.9854 34.1021 27.708 33.9947 27.4059C33.8874 27.1038 33.8419 26.7831 33.8611 26.4631C33.8611 24.8381 35.023 23.8875 36.2093 23.8875Z" fill="#4885ED"/>
<path d="M47.9091 22.2295C45.7804 22.2295 43.9888 23.9236 43.9888 26.4261C43.9678 26.9776 44.0593 27.5276 44.2579 28.0425C44.4564 28.5575 44.7579 29.0266 45.1437 29.4212C45.5296 29.8158 45.9918 30.1276 46.5022 30.3377C47.0126 30.5478 47.5604 30.6516 48.1122 30.6429C48.8043 30.6443 49.4864 30.4771 50.0993 30.1557C50.7123 29.8344 51.2378 29.3686 51.6304 28.7986L50.176 27.8317C49.9653 28.1892 49.6638 28.4846 49.3021 28.688C48.9403 28.8913 48.5312 28.9953 48.1163 28.9895C47.6853 29.0073 47.2588 28.8957 46.8917 28.6691C46.5247 28.4425 46.2338 28.1112 46.0566 27.7179L51.6913 25.382L51.3988 24.6954C51.1302 23.9822 50.6535 23.3662 50.0305 22.9272C49.4076 22.4882 48.667 22.2465 47.905 22.2336L47.9091 22.2295ZM47.9822 23.8545C48.3001 23.8408 48.6153 23.918 48.8909 24.077C49.1664 24.236 49.391 24.4702 49.5382 24.7523L45.7763 26.3245C45.7576 26.0172 45.8 25.7092 45.901 25.4184C46.002 25.1275 46.1596 24.8595 46.3647 24.6299C46.5697 24.4003 46.8183 24.2135 47.0959 24.0804C47.3735 23.9473 47.6748 23.8706 47.9822 23.8545Z" fill="#DB3236"/>
<path d="M41.3032 30.3958H43.1557V18.0093H41.3032V30.3958Z" fill="#3CBA54"/>
</svg>
