<svg width="22" height="22" viewBox="0 0 22 22" fill="none" xmlns="http://www.w3.org/2000/svg">
<rect width="22" height="22" rx="11" fill="#0076B2"/>
<path d="M5.19504 8.92781H7.64789V16.82H5.19504V8.92781ZM6.42214 5C6.70347 5 6.97848 5.08344 7.21238 5.23977C7.44628 5.39609 7.62855 5.61828 7.73615 5.87822C7.84375 6.13816 7.87183 6.42418 7.81685 6.70008C7.76187 6.97599 7.62629 7.22938 7.42726 7.42822C7.22824 7.62706 6.97471 7.76239 6.69875 7.81712C6.4228 7.87184 6.13681 7.84348 5.87697 7.73563C5.61713 7.62779 5.39512 7.4453 5.23902 7.21125C5.08291 6.9772 4.99973 6.70211 5 6.42078C5.00036 6.04384 5.15035 5.68247 5.41701 5.41606C5.68368 5.14965 6.0452 5 6.42214 5ZM9.1865 8.92781H11.5378V10.0113H11.5703C11.898 9.39102 12.6972 8.73684 13.8904 8.73684C16.3744 8.73142 16.8349 10.3662 16.8349 12.4859V16.82H14.382V12.9802C14.382 12.066 14.3658 10.889 13.1075 10.889C11.8493 10.889 11.6353 11.8859 11.6353 12.9206V16.82H9.1865V8.92781Z" fill="white"/>
</svg>
