<svg width="48" height="48" viewBox="0 0 48 48" fill="none" xmlns="http://www.w3.org/2000/svg">
<rect width="48" height="48" rx="24" fill="#ECF7FD"/>
<path d="M24.5598 32.82C24.3966 32.9372 24.2007 33.0003 23.9998 33.0003C23.7988 33.0003 23.603 32.9372 23.4398 32.82C18.6108 29.378 13.4858 22.298 18.6668 17.182C20.0891 15.7828 22.0046 14.9991 23.9998 15C25.9998 15 27.9188 15.785 29.3328 17.181C34.5138 22.297 29.3888 29.376 24.5598 32.82Z" stroke="#42B0EB" stroke-width="1.5" stroke-linecap="round" stroke-linejoin="round"/>
<path d="M24 24C24.5304 24 25.0391 23.7893 25.4142 23.4142C25.7893 23.0391 26 22.5304 26 22C26 21.4696 25.7893 20.9609 25.4142 20.5858C25.0391 20.2107 24.5304 20 24 20C23.4696 20 22.9609 20.2107 22.5858 20.5858C22.2107 20.9609 22 21.4696 22 22C22 22.5304 22.2107 23.0391 22.5858 23.4142C22.9609 23.7893 23.4696 24 24 24Z" stroke="#42B0EB" stroke-width="1.5" stroke-linecap="round" stroke-linejoin="round"/>
</svg>
