<svg width="28" height="27" viewBox="0 0 28 27" fill="none" xmlns="http://www.w3.org/2000/svg">
<path d="M12.875 6.75011H16.25L19.9513 3.03761C20.0558 2.93216 20.1803 2.84847 20.3174 2.79135C20.4545 2.73424 20.6015 2.70483 20.75 2.70483C20.8985 2.70483 21.0456 2.73424 21.1827 2.79135C21.3197 2.84847 21.4442 2.93216 21.5488 3.03761L24.4513 5.95136C24.6608 6.16214 24.7784 6.44727 24.7784 6.74448C24.7784 7.04169 24.6608 7.32682 24.4513 7.53761L21.875 10.1251H12.875V12.3751C12.875 12.6735 12.7565 12.9596 12.5455 13.1706C12.3345 13.3816 12.0484 13.5001 11.75 13.5001C11.4516 13.5001 11.1655 13.3816 10.9545 13.1706C10.7435 12.9596 10.625 12.6735 10.625 12.3751V9.00011C10.625 8.40337 10.8621 7.83107 11.284 7.40912C11.706 6.98716 12.2783 6.75011 12.875 6.75011ZM6.12501 12.3751V16.8751L3.54876 19.4514C3.33923 19.6621 3.22162 19.9473 3.22162 20.2445C3.22162 20.5417 3.33923 20.8268 3.54876 21.0376L6.45126 23.9514C6.55584 24.0568 6.68027 24.1405 6.81736 24.1976C6.95445 24.2547 7.1015 24.2841 7.25001 24.2841C7.39852 24.2841 7.54557 24.2547 7.68266 24.1976C7.81975 24.1405 7.94418 24.0568 8.04876 23.9514L12.875 19.1251H17.375C17.6734 19.1251 17.9595 19.0066 18.1705 18.7956C18.3815 18.5846 18.5 18.2985 18.5 18.0001V16.8751H19.625C19.9234 16.8751 20.2095 16.7566 20.4205 16.5456C20.6315 16.3346 20.75 16.0485 20.75 15.7501V14.6251H21.875C22.1734 14.6251 22.4595 14.5066 22.6705 14.2956C22.8815 14.0846 23 13.7985 23 13.5001V12.3751H15.125V13.5001C15.125 14.0968 14.888 14.6691 14.466 15.0911C14.044 15.5131 13.4717 15.7501 12.875 15.7501H10.625C10.0283 15.7501 9.45598 15.5131 9.03402 15.0911C8.61206 14.6691 8.37501 14.0968 8.37501 13.5001V10.1251L6.12501 12.3751Z" fill="#EE8E32"/>
</svg>
