<svg width="48" height="48" viewBox="0 0 48 48" fill="none" xmlns="http://www.w3.org/2000/svg">
<rect width="48" height="48" rx="24" fill="#FDF3EA"/>
<path d="M19.8289 28.171C17.6783 26.0162 16.0244 23.4176 14.9829 20.557C14.4099 18.993 14.9349 17.275 16.1129 16.097L16.8419 15.369C17.0379 15.1726 17.2707 15.0168 17.5269 14.9105C17.7832 14.8042 18.0579 14.7495 18.3354 14.7495C18.6128 14.7495 18.8875 14.8042 19.1438 14.9105C19.4001 15.0168 19.6329 15.1726 19.8289 15.369L21.5359 17.076C21.7323 17.272 21.8881 17.5048 21.9944 17.761C22.1007 18.0173 22.1554 18.292 22.1554 18.5695C22.1554 18.8469 22.1007 19.1217 21.9944 19.3779C21.8881 19.6342 21.7323 19.867 21.5359 20.063L21.1159 20.483C20.9478 20.6511 20.8144 20.8506 20.7234 21.0702C20.6324 21.2899 20.5856 21.5253 20.5856 21.763C20.5856 22.0007 20.6324 22.2361 20.7234 22.4557C20.8144 22.6754 20.9478 22.8749 21.1159 23.043L24.9559 26.884C25.124 27.0521 25.3235 27.1855 25.5431 27.2765C25.7628 27.3674 25.9982 27.4143 26.2359 27.4143C26.4736 27.4143 26.709 27.3674 26.9286 27.2765C27.1482 27.1855 27.3478 27.0521 27.5159 26.884L27.9369 26.464C28.1329 26.2676 28.3657 26.1118 28.6219 26.0055C28.8782 25.8992 29.1529 25.8445 29.4304 25.8445C29.7078 25.8445 29.9825 25.8992 30.2388 26.0055C30.4951 26.1118 30.7279 26.2676 30.9239 26.464L32.6309 28.171C32.8273 28.367 32.9831 28.5998 33.0894 28.856C33.1957 29.1123 33.2504 29.387 33.2504 29.6645C33.2504 29.9419 33.1957 30.2167 33.0894 30.4729C32.9831 30.7292 32.8273 30.962 32.6309 31.158L31.9029 31.886C30.7249 33.065 29.0069 33.59 27.4429 33.017C24.5822 31.9755 21.9836 30.3216 19.8289 28.171Z" stroke="#EE8E32" stroke-width="1.5" stroke-linejoin="round"/>
</svg>
