<svg width="25" height="22" viewBox="0 0 25 22" fill="none" xmlns="http://www.w3.org/2000/svg">
<path d="M4.81348 17.9776C4.81348 16.9201 5.23356 15.906 5.9813 15.1582C6.72905 14.4105 7.74321 13.9904 8.80068 13.9904H16.7751C17.8325 13.9904 18.8467 14.4105 19.5945 15.1582C20.3422 15.906 20.7623 16.9201 20.7623 17.9776C20.7623 18.5063 20.5522 19.0134 20.1784 19.3873C19.8045 19.7612 19.2974 19.9712 18.7687 19.9712H6.80708C6.27834 19.9712 5.77126 19.7612 5.39739 19.3873C5.02352 19.0134 4.81348 18.5063 4.81348 17.9776Z" stroke="#666666" stroke-width="1.4952" stroke-linejoin="round"/>
<path d="M12.7883 10.0032C14.4398 10.0032 15.7787 8.66435 15.7787 7.0128C15.7787 5.36125 14.4398 4.0224 12.7883 4.0224C11.1367 4.0224 9.79785 5.36125 9.79785 7.0128C9.79785 8.66435 11.1367 10.0032 12.7883 10.0032Z" stroke="#666666" stroke-width="1.4952"/>
</svg>
