<svg width="41" height="40" viewBox="0 0 41 40" fill="none" xmlns="http://www.w3.org/2000/svg">
<g clip-path="url(#clip0_541_2030)">
<path d="M20.8906 13.8672L4.19141 30.5859C3.8138 30.9635 3.52083 31.3997 3.3125 31.8945C3.10417 32.3893 3 32.9102 3 33.457C3 34.0039 3.10417 34.5247 3.3125 35.0195C3.52083 35.5143 3.8138 35.944 4.19141 36.3086C4.56901 36.6732 4.9987 36.9596 5.48047 37.168C5.96224 37.3763 6.48307 37.487 7.04297 37.5C7.57682 37.5 8.09115 37.3958 8.58594 37.1875C9.08073 36.9792 9.52344 36.6862 9.91406 36.3086L20.5 25.7422V29.2773L11.6914 38.0859C11.0664 38.7109 10.3568 39.1862 9.5625 39.5117C8.76823 39.8372 7.92839 40 7.04297 40C6.14453 40 5.30469 39.8307 4.52344 39.4922C3.74219 39.1536 3.04557 38.6784 2.43359 38.0664C1.82161 37.4544 1.35286 36.7643 1.02734 35.9961C0.701823 35.2279 0.526042 34.3815 0.5 33.457C0.5 32.5586 0.66276 31.7188 0.988281 30.9375C1.3138 30.1562 1.78906 29.4466 2.41406 28.8086L18.1562 13.0664C18.1042 12.7669 18.0651 12.4674 18.0391 12.168C18.013 11.8685 18 11.5625 18 11.25C18 10.2214 18.1302 9.23177 18.3906 8.28125C18.651 7.33073 19.0286 6.43229 19.5234 5.58594C20.0182 4.73958 20.6107 3.97786 21.3008 3.30078C21.9909 2.6237 22.7526 2.03776 23.5859 1.54297C24.4193 1.04818 25.3112 0.670573 26.2617 0.410156C27.2122 0.14974 28.2083 0.0130208 29.25 0C29.9531 0 30.5977 0.0520833 31.1836 0.15625C31.7695 0.260417 32.3424 0.416667 32.9023 0.625C33.4622 0.833333 34.0026 1.08073 34.5234 1.36719C35.0443 1.65365 35.6042 1.96615 36.2031 2.30469L28.5078 10L30.5 11.9922L38.1953 4.29688C38.5078 4.84375 38.8008 5.39062 39.0742 5.9375C39.3477 6.48438 39.5951 7.05078 39.8164 7.63672C40.0378 8.22266 40.2135 8.80859 40.3438 9.39453C40.474 9.98047 40.5391 10.6055 40.5391 11.2695C40.5391 12.1289 40.4349 12.9818 40.2266 13.8281C40.0182 14.6745 39.7122 15.4818 39.3086 16.25C38.9049 17.0182 38.4362 17.7409 37.9023 18.418C37.3685 19.0951 36.75 19.694 36.0469 20.2148C35.4479 19.9805 34.8359 19.7982 34.2109 19.668C33.5859 19.5378 32.9479 19.4596 32.2969 19.4336C33.1432 19.1211 33.918 18.6914 34.6211 18.1445C35.3242 17.5977 35.9232 16.9727 36.418 16.2695C36.9128 15.5664 37.3034 14.7917 37.5898 13.9453C37.8763 13.099 38.013 12.2201 38 11.3086C38 10.332 37.8438 9.39453 37.5312 8.49609L30.5 15.5078L24.9922 10L32.0039 2.96875C31.1185 2.65625 30.2005 2.5 29.25 2.5C28.0391 2.5 26.9062 2.72786 25.8516 3.18359C24.7969 3.63932 23.8724 4.26432 23.0781 5.05859C22.2839 5.85286 21.6589 6.77734 21.2031 7.83203C20.7474 8.88672 20.513 10.026 20.5 11.25C20.5 11.6927 20.5391 12.1289 20.6172 12.5586C20.6953 12.9883 20.7865 13.4245 20.8906 13.8672ZM31.75 22.5C32.9609 22.5 34.0938 22.7279 35.1484 23.1836C36.2031 23.6393 37.1341 24.2643 37.9414 25.0586C38.7487 25.8529 39.3737 26.7773 39.8164 27.832C40.2591 28.8867 40.487 30.026 40.5 31.25C40.5 32.4609 40.2721 33.5938 39.8164 34.6484C39.3607 35.7031 38.7357 36.6341 37.9414 37.4414C37.1471 38.2487 36.2227 38.8737 35.168 39.3164C34.1133 39.7591 32.974 39.987 31.75 40C30.5391 40 29.4062 39.7721 28.3516 39.3164C27.2969 38.8607 26.3659 38.2357 25.5586 37.4414C24.7513 36.6471 24.1263 35.7227 23.6836 34.668C23.2409 33.6133 23.013 32.474 23 31.25C23 30.0391 23.2279 28.9062 23.6836 27.8516C24.1393 26.7969 24.7643 25.8659 25.5586 25.0586C26.3529 24.2513 27.2773 23.6263 28.332 23.1836C29.3867 22.7409 30.526 22.513 31.75 22.5ZM25.5 31.25C25.5 32.1094 25.6628 32.9167 25.9883 33.6719C26.3138 34.4271 26.7565 35.0911 27.3164 35.6641C27.8763 36.237 28.5404 36.6862 29.3086 37.0117C30.0768 37.3372 30.8906 37.5 31.75 37.5C32.362 37.5 32.9609 37.4154 33.5469 37.2461C34.1328 37.0768 34.6797 36.8164 35.1875 36.4648L26.5352 27.8125C26.1966 28.3203 25.9427 28.8672 25.7734 29.4531C25.6042 30.0391 25.513 30.638 25.5 31.25ZM36.9648 34.6875C37.3034 34.1797 37.5573 33.6328 37.7266 33.0469C37.8958 32.4609 37.987 31.862 38 31.25C38 30.3906 37.8372 29.5833 37.5117 28.8281C37.1862 28.0729 36.737 27.4154 36.1641 26.8555C35.5911 26.2956 34.9271 25.8464 34.1719 25.5078C33.4167 25.1693 32.6094 25 31.75 25C31.138 25 30.5391 25.0846 29.9531 25.2539C29.3672 25.4232 28.8203 25.6836 28.3125 26.0352L36.9648 34.6875Z" fill="#EE8E32"/>
</g>
<defs>
<clipPath id="clip0_541_2030">
<rect width="40" height="40" fill="white" transform="translate(0.5)"/>
</clipPath>
</defs>
</svg>
