<svg width="22" height="23" viewBox="0 0 22 23" fill="none" xmlns="http://www.w3.org/2000/svg">
<path d="M14.5621 14.9711L15.6025 15.5719M15.7387 11.0936C15.7387 14.7928 12.7398 17.7916 9.04012 17.7916C5.34046 17.7916 2.34204 14.7928 2.34204 11.0936C2.34204 7.39435 5.34092 4.39502 9.04012 4.39502C12.7393 4.39502 15.7387 7.39435 15.7387 11.0936ZM15.4348 15.9093L15.6805 15.483C15.7423 15.3754 15.8248 15.281 15.9233 15.2054C16.0217 15.1297 16.1341 15.0742 16.254 15.0421C16.3739 15.01 16.499 15.0019 16.6221 15.0183C16.7451 15.0346 16.8638 15.0751 16.9711 15.1374L19.1849 16.4157C19.2924 16.4776 19.3867 16.5601 19.4624 16.6585C19.538 16.7569 19.5934 16.8692 19.6256 16.9891C19.6577 17.1089 19.6658 17.234 19.6495 17.357C19.6331 17.48 19.5927 17.5986 19.5305 17.7059L19.2848 18.1322C19.2229 18.2398 19.1404 18.3342 19.042 18.4098C18.9436 18.4855 18.8312 18.541 18.7112 18.5731C18.5913 18.6052 18.4662 18.6133 18.3432 18.5969C18.2201 18.5806 18.1015 18.5401 17.9941 18.4778L15.7804 17.1995C15.6728 17.1376 15.5785 17.0551 15.5029 16.9567C15.4273 16.8583 15.3718 16.746 15.3397 16.6261C15.3076 16.5063 15.2995 16.3812 15.3158 16.2582C15.3321 16.1352 15.3725 16.0166 15.4348 15.9093Z" stroke="#666666" stroke-linecap="round" stroke-linejoin="round"/>
<path d="M9.02003 9.60254C9.42051 9.60254 9.80457 9.76163 10.0878 10.0448C10.3709 10.328 10.53 10.712 10.53 11.1125C10.53 11.513 10.3709 11.8971 10.0878 12.1802C9.80457 12.4634 9.42051 12.6225 9.02003 12.6225C8.82179 12.6225 8.62549 12.5834 8.44235 12.5076C8.2592 12.4317 8.0928 12.3205 7.95264 12.1803C7.81248 12.0401 7.70132 11.8736 7.6255 11.6905C7.54968 11.5073 7.51068 11.311 7.51074 11.1127C7.51068 10.9145 7.54966 10.7183 7.62545 10.5351C7.70125 10.352 7.81237 10.1856 7.95248 10.0454C8.09259 9.90519 8.25894 9.79397 8.44203 9.71806C8.62512 9.64216 8.82137 9.60306 9.01958 9.603" stroke="#666666" stroke-width="0.375" stroke-linecap="round" stroke-linejoin="round"/>
<path d="M7.90802 6.23877L7.66969 7.46389C7.27427 7.61021 6.90628 7.82201 6.58115 8.09044L5.40507 7.68481L4.27161 9.6474L5.21348 10.4669C5.13857 10.8817 5.13857 11.3066 5.21348 11.7214L4.27161 12.5404L5.40507 14.5021L6.58023 14.0969C6.90531 14.366 7.2739 14.5778 7.67015 14.723L7.90802 15.9476H10.1726L10.4064 14.7354C10.8006 14.5778 11.169 14.3623 11.4995 14.096L12.6756 14.5016L13.8082 12.5399L12.8672 11.72C12.9428 11.306 12.9428 10.8818 12.8672 10.4678L13.8091 9.64648L12.6756 7.68481L11.5004 8.08998C11.1753 7.82101 10.8067 7.60944 10.4105 7.46435L10.1726 6.23923L7.90802 6.23877Z" stroke="#666666" stroke-linecap="round" stroke-linejoin="round"/>
</svg>
