<svg width="48" height="48" viewBox="0 0 48 48" fill="none" xmlns="http://www.w3.org/2000/svg">
<rect width="48" height="48" rx="24" fill="#E9F6EF"/>
<g clip-path="url(#clip0_591_4493)">
<path d="M29.1303 26.235C28.8453 26.1 27.4803 25.425 27.2253 25.32C26.9703 25.215 26.7903 25.185 26.5953 25.47C26.4003 25.755 25.8753 26.37 25.7103 26.565C25.5453 26.76 25.3953 26.775 25.1103 26.565C24.2913 26.2373 23.5352 25.7704 22.8753 25.185C22.2784 24.6213 21.7724 23.9686 21.3753 23.25C21.2103 22.98 21.3753 22.83 21.4953 22.68C21.6153 22.53 21.7653 22.365 21.9153 22.2C22.0249 22.0572 22.1156 21.9009 22.1853 21.735C22.2225 21.6578 22.2419 21.5732 22.2419 21.4875C22.2419 21.4018 22.2225 21.3172 22.1853 21.24C22.1853 21.105 21.5553 19.74 21.3153 19.185C21.0753 18.63 20.8653 18.705 20.7003 18.705H20.1003C19.8145 18.7161 19.5448 18.8402 19.3503 19.05C19.0365 19.3495 18.7879 19.7106 18.6201 20.1107C18.4523 20.5108 18.369 20.9412 18.3753 21.375C18.453 22.4398 18.8444 23.4576 19.5003 24.3C20.7044 26.0911 22.3533 27.5384 24.2853 28.5C24.9453 28.785 25.4553 28.95 25.8603 29.085C26.4288 29.2586 27.0303 29.2946 27.6153 29.19C28.004 29.1112 28.3723 28.9533 28.6974 28.7262C29.0225 28.4992 29.2975 28.2077 29.5053 27.87C29.6783 27.4529 29.7353 26.9968 29.6703 26.55C29.5953 26.445 29.4153 26.37 29.1303 26.235Z" fill="#27AA60"/>
<path d="M31.9348 16.02C30.8974 14.9728 29.6608 14.144 28.298 13.5824C26.9352 13.0207 25.4737 12.7377 23.9998 12.75C22.0472 12.7602 20.1315 13.2825 18.444 14.2648C16.7565 15.2471 15.3562 16.6549 14.383 18.3477C13.4099 20.0405 12.8979 21.959 12.8982 23.9116C12.8985 25.8642 13.4111 27.7825 14.3848 29.475L12.8848 35.25L18.7948 33.75C20.4286 34.639 22.2597 35.1033 24.1198 35.1H23.9998C26.2166 35.1144 28.3876 34.4683 30.2358 33.244C32.084 32.0196 33.5256 30.2726 34.3769 28.2256C35.2282 26.1787 35.4505 23.9245 35.0156 21.7507C34.5806 19.5769 33.5081 17.5818 31.9348 16.02ZM23.9998 33.18C22.3354 33.1828 20.7018 32.7316 19.2748 31.875L18.9448 31.68L15.4348 32.595L16.3648 29.175L16.1548 28.83C14.9568 26.9007 14.5087 24.5989 14.8954 22.3611C15.2822 20.1234 16.4769 18.1054 18.2529 16.6902C20.0289 15.2749 22.2626 14.5608 24.5303 14.6834C26.7979 14.8059 28.9416 15.7566 30.5548 17.355C31.4196 18.2128 32.105 19.2342 32.5711 20.3596C33.0373 21.485 33.2747 22.6919 33.2698 23.91C33.2658 26.3673 32.2879 28.7229 30.5503 30.4605C28.8127 32.1981 26.4571 33.176 23.9998 33.18Z" fill="#27AA60"/>
</g>
<defs>
<clipPath id="clip0_591_4493">
<rect width="24" height="24" fill="white" transform="translate(12 12)"/>
</clipPath>
</defs>
</svg>
