<svg width="24" height="25" viewBox="0 0 24 25" fill="none" xmlns="http://www.w3.org/2000/svg">
<g clip-path="url(#clip0_1275_7918)">
<path fill-rule="evenodd" clip-rule="evenodd" d="M15.583 4.41989C16.895 4.86089 17.75 6.09589 17.75 7.71489C17.75 8.73189 17.172 9.66889 16.527 10.4149C15.864 11.1839 15.026 11.8729 14.292 12.4079L14.199 12.4759C13.487 12.9959 12.899 13.4259 12 13.4259C11.1 13.4259 10.514 12.9959 9.80202 12.4759L9.70802 12.4079C8.97402 11.8729 8.13602 11.1839 7.47302 10.4159C6.83002 9.66889 6.25002 8.73189 6.25002 7.71489C6.25002 6.09589 7.10502 4.86189 8.41702 4.41989C9.53702 4.04289 10.839 4.29189 12 5.13689C13.161 4.29189 14.464 4.04289 15.583 4.41989ZM15.105 5.84189C14.453 5.62189 13.48 5.76389 12.508 6.65789C12.3696 6.78509 12.1885 6.85567 12.0005 6.85567C11.8125 6.85567 11.6314 6.78509 11.493 6.65789C10.52 5.76389 9.54802 5.62189 8.89602 5.84189C8.27002 6.05189 7.75002 6.65589 7.75002 7.71489C7.75002 8.18189 8.03502 8.76989 8.60902 9.43589C9.16502 10.0809 9.90102 10.6929 10.592 11.1959C11.435 11.8109 11.635 11.9259 12 11.9259C12.365 11.9259 12.565 11.8109 13.409 11.1959C14.099 10.6929 14.835 10.0809 15.391 9.43589C15.966 8.76989 16.251 8.18189 16.251 7.71489C16.251 6.65489 15.73 6.05189 15.105 5.84189ZM8.68402 17.4479C10.55 17.0859 12.547 17.1679 14.164 18.1319C14.39 18.2669 14.604 18.4359 14.789 18.6439C15.165 19.0659 15.359 19.5909 15.368 20.1169C15.5587 19.9929 15.751 19.8572 15.945 19.7099L17.753 18.3449C18.206 18.0125 18.7532 17.8332 19.315 17.8332C19.8769 17.8332 20.4241 18.0125 20.877 18.3449C21.712 18.9749 22.046 20.1079 21.447 21.0669C21.022 21.7489 20.382 22.6919 19.73 23.2959C19.07 23.9059 18.133 24.4189 17.424 24.7619C16.562 25.1779 15.632 25.4069 14.727 25.5539C12.877 25.8539 10.953 25.8069 9.12502 25.4309C8.18232 25.2371 7.22245 25.1389 6.26002 25.1379H4.00002C3.80111 25.1379 3.61034 25.0589 3.46969 24.9182C3.32904 24.7776 3.25002 24.5868 3.25002 24.3879C3.25002 24.189 3.32904 23.9982 3.46969 23.8576C3.61034 23.7169 3.80111 23.6379 4.00002 23.6379H6.26002C7.32202 23.6379 8.39502 23.7479 9.42802 23.9619C11.0942 24.3038 12.8085 24.3414 14.488 24.0729C15.316 23.9389 16.09 23.7399 16.772 23.4109C17.455 23.0809 18.223 22.6469 18.71 22.1949C19.203 21.7389 19.754 20.9479 20.175 20.2739C20.302 20.0699 20.284 19.7759 19.973 19.5409C19.7806 19.4049 19.5507 19.3318 19.315 19.3318C19.0794 19.3318 18.8495 19.4049 18.657 19.5409L16.85 20.9069C16.128 21.4519 15.24 22.0349 14.139 22.2099C14.0237 22.2285 13.908 22.2448 13.792 22.2589C13.7347 22.2689 13.675 22.2756 13.613 22.2789C12.9705 22.3412 12.3235 22.3412 11.681 22.2789C11.5814 22.2717 11.4843 22.2446 11.3952 22.1994C11.3062 22.1541 11.2271 22.0915 11.1626 22.0152C11.0981 21.939 11.0495 21.8506 11.0196 21.7553C10.9897 21.6601 10.9792 21.5598 10.9886 21.4603C10.998 21.3609 11.0271 21.2644 11.0743 21.1764C11.1215 21.0883 11.1858 21.0107 11.2635 20.9478C11.3411 20.885 11.4305 20.8383 11.5264 20.8105C11.6223 20.7827 11.7228 20.7743 11.822 20.7859C12.45 20.8449 13.012 20.8319 13.49 20.7829L13.52 20.7799C13.6133 20.722 13.6926 20.6441 13.7522 20.5518C13.8117 20.4596 13.85 20.3553 13.8644 20.2464C13.8787 20.1375 13.8688 20.0268 13.8351 19.9223C13.8015 19.8178 13.7451 19.722 13.67 19.6419C13.5898 19.5547 13.4971 19.4799 13.395 19.4199C12.214 18.7149 10.636 18.5979 8.96902 18.9199C7.34057 19.2468 5.79686 19.9055 4.43402 20.8549C4.35365 20.9119 4.26285 20.9525 4.16678 20.9744C4.07072 20.9963 3.97129 20.9991 3.87416 20.9825C3.77703 20.966 3.6841 20.9305 3.60069 20.8781C3.51728 20.8256 3.44502 20.7573 3.38802 20.6769C3.33103 20.5965 3.29042 20.5057 3.26852 20.4097C3.24662 20.3136 3.24386 20.2142 3.26039 20.117C3.29377 19.9209 3.40371 19.746 3.56602 19.6309C5.10335 18.5583 6.84581 17.8151 8.68402 17.4479Z" fill="white"/>
</g>
<defs>
<clipPath id="clip0_1275_7918">
<rect width="24" height="24" fill="white" transform="translate(0 0.0864258)"/>
</clipPath>
</defs>
</svg>
