<svg width="24" height="24" viewBox="0 0 24 24" fill="none" xmlns="http://www.w3.org/2000/svg">
<path fill-rule="evenodd" clip-rule="evenodd" d="M15.583 1.42013C16.895 1.86113 17.75 3.09613 17.75 4.71513C17.75 5.73213 17.172 6.66913 16.527 7.41513C15.864 8.18413 15.026 8.87313 14.292 9.40813L14.199 9.47613C13.487 9.99613 12.899 10.4261 12 10.4261C11.1 10.4261 10.514 9.99613 9.80202 9.47613L9.70802 9.40813C8.97402 8.87313 8.13602 8.18413 7.47302 7.41613C6.83002 6.66913 6.25002 5.73213 6.25002 4.71513C6.25002 3.09613 7.10502 1.86213 8.41702 1.42013C9.53702 1.04313 10.839 1.29213 12 2.13713C13.161 1.29213 14.464 1.04313 15.583 1.42013ZM15.105 2.84213C14.453 2.62213 13.48 2.76413 12.508 3.65813C12.3696 3.78533 12.1885 3.85592 12.0005 3.85592C11.8125 3.85592 11.6314 3.78533 11.493 3.65813C10.52 2.76413 9.54802 2.62213 8.89602 2.84213C8.27002 3.05213 7.75002 3.65613 7.75002 4.71513C7.75002 5.18213 8.03502 5.77013 8.60902 6.43613C9.16502 7.08113 9.90102 7.69313 10.592 8.19613C11.435 8.81113 11.635 8.92613 12 8.92613C12.365 8.92613 12.565 8.81113 13.409 8.19613C14.099 7.69313 14.835 7.08113 15.391 6.43613C15.966 5.77013 16.251 5.18213 16.251 4.71513C16.251 3.65513 15.73 3.05213 15.105 2.84213ZM8.68402 14.4481C10.55 14.0861 12.547 14.1681 14.164 15.1321C14.39 15.2671 14.604 15.4361 14.789 15.6441C15.165 16.0661 15.359 16.5911 15.368 17.1171C15.5587 16.9931 15.751 16.8575 15.945 16.7101L17.753 15.3451C18.206 15.0127 18.7532 14.8335 19.315 14.8335C19.8769 14.8335 20.4241 15.0127 20.877 15.3451C21.712 15.9751 22.046 17.1081 21.447 18.0671C21.022 18.7491 20.382 19.6921 19.73 20.2961C19.07 20.9061 18.133 21.4191 17.424 21.7621C16.562 22.1781 15.632 22.4071 14.727 22.5541C12.877 22.8541 10.953 22.8071 9.12502 22.4311C8.18232 22.2373 7.22245 22.1391 6.26002 22.1381H4.00002C3.80111 22.1381 3.61034 22.0591 3.46969 21.9185C3.32904 21.7778 3.25002 21.587 3.25002 21.3881C3.25002 21.1892 3.32904 20.9985 3.46969 20.8578C3.61034 20.7172 3.80111 20.6381 4.00002 20.6381H6.26002C7.32202 20.6381 8.39502 20.7481 9.42802 20.9621C11.0942 21.304 12.8085 21.3416 14.488 21.0731C15.316 20.9391 16.09 20.7401 16.772 20.4111C17.455 20.0811 18.223 19.6471 18.71 19.1951C19.203 18.7391 19.754 17.9481 20.175 17.2741C20.302 17.0701 20.284 16.7761 19.973 16.5411C19.7806 16.4051 19.5507 16.3321 19.315 16.3321C19.0794 16.3321 18.8495 16.4051 18.657 16.5411L16.85 17.9071C16.128 18.4521 15.24 19.0351 14.139 19.2101C14.0237 19.2287 13.908 19.2451 13.792 19.2591C13.7347 19.2691 13.675 19.2758 13.613 19.2791C12.9705 19.3415 12.3235 19.3415 11.681 19.2791C11.5814 19.2719 11.4843 19.2449 11.3952 19.1996C11.3062 19.1543 11.2271 19.0917 11.1626 19.0155C11.0981 18.9392 11.0495 18.8509 11.0196 18.7556C10.9897 18.6603 10.9792 18.56 10.9886 18.4606C10.998 18.3612 11.0271 18.2646 11.0743 18.1766C11.1215 18.0886 11.1858 18.0109 11.2635 17.9481C11.3411 17.8853 11.4305 17.8386 11.5264 17.8108C11.6223 17.7829 11.7228 17.7746 11.822 17.7861C12.45 17.8451 13.012 17.8321 13.49 17.7831L13.52 17.7801C13.6133 17.7222 13.6926 17.6443 13.7522 17.5521C13.8117 17.4598 13.85 17.3555 13.8644 17.2466C13.8787 17.1378 13.8688 17.0271 13.8351 16.9225C13.8015 16.818 13.7451 16.7222 13.67 16.6421C13.5898 16.555 13.4971 16.4802 13.395 16.4201C12.214 15.7151 10.636 15.5981 8.96902 15.9201C7.34057 16.247 5.79686 16.9057 4.43402 17.8551C4.35365 17.9121 4.26285 17.9527 4.16678 17.9746C4.07072 17.9965 3.97129 17.9993 3.87416 17.9828C3.77703 17.9662 3.6841 17.9307 3.60069 17.8783C3.51728 17.8259 3.44502 17.7575 3.38802 17.6771C3.33103 17.5968 3.29042 17.506 3.26852 17.4099C3.24662 17.3138 3.24386 17.2144 3.26039 17.1173C3.29377 16.9211 3.40371 16.7462 3.56602 16.6311C5.10335 15.5585 6.84581 14.8153 8.68402 14.4481Z" fill="#FCC978"/>
</svg>
