<svg width="24" height="24" viewBox="0 0 24 24" fill="none" xmlns="http://www.w3.org/2000/svg">
<path fill-rule="evenodd" clip-rule="evenodd" d="M17.0004 4.00049C17.7634 4.00049 18.3944 4.43449 18.8564 4.89049C19.3374 5.36349 19.7784 5.99949 20.1704 6.70049C20.9574 8.10649 21.6424 9.94349 22.0954 11.7585C22.5454 13.5595 22.7944 15.4405 22.6354 16.9195C22.4754 18.4045 21.7104 20.0005 20.0004 20.0005C18.5244 20.0005 17.3484 19.2405 16.3864 18.4695L16.0354 18.1805L15.5434 17.7655L15.0994 17.3975C14.0804 16.5725 13.1754 16.0005 12.0004 16.0005C10.8254 16.0005 9.92037 16.5725 8.90137 17.3975L8.45737 17.7655L7.96537 18.1805L7.61537 18.4695C6.65137 19.2405 5.47537 20.0005 4.00037 20.0005C2.28937 20.0005 1.52437 18.4045 1.36537 16.9195C1.20737 15.4395 1.45537 13.5595 1.90537 11.7585C2.35837 9.94349 3.04337 8.10649 3.83037 6.69949C4.22237 5.99949 4.66337 5.36349 5.14437 4.88949C5.60637 4.43449 6.23737 4.00049 7.00037 4.00049C7.51537 4.00049 8.01837 4.12349 8.51337 4.27049L9.10537 4.45149C9.20403 4.48216 9.30237 4.51116 9.40037 4.53849C10.2654 4.78649 11.1504 5.00049 12.0004 5.00049C12.8504 5.00049 13.7354 4.78649 14.6004 4.53849L15.4854 4.27149C15.9834 4.12449 16.4904 4.00049 17.0004 4.00049ZM17.0004 6.00049C16.6174 6.00049 16.2174 6.11649 15.8294 6.24349L15.3714 6.39449L15.1504 6.46249C14.2654 6.71449 13.1504 7.00049 12.0004 7.00049C10.8504 7.00049 9.73537 6.71449 8.85037 6.46249L8.63037 6.39449L8.17137 6.24349C7.78337 6.11549 7.38337 6.00049 7.00037 6.00049C6.58237 6.07849 6.20737 6.58549 5.92437 7.05549L5.76637 7.33049L5.57637 7.67649C4.89437 8.89449 4.26637 10.5565 3.84637 12.2435C3.45137 13.8195 3.25937 15.3295 3.33237 16.4535L3.35837 16.7465L3.37837 16.9225L3.40837 17.1305C3.47737 17.5315 3.62637 18.0005 4.00037 18.0005C4.81237 18.0005 5.49037 17.5965 6.33337 16.9265L6.73637 16.5985L7.49637 15.9625L7.84037 15.6825C8.90437 14.8395 10.2354 14.0005 12.0004 14.0005C13.7654 14.0005 15.0964 14.8405 16.1604 15.6825L16.5054 15.9625L17.2654 16.5985L17.6674 16.9265C18.5104 17.5965 19.1874 18.0005 20.0004 18.0005C20.3404 18.0005 20.4944 17.6135 20.5714 17.2415L20.6094 17.0235L20.6464 16.7065C20.7694 15.5605 20.5794 13.9415 20.1554 12.2435C19.7694 10.6975 19.2094 9.17149 18.5934 7.98949L18.2344 7.32949L18.0764 7.05649C17.7934 6.58549 17.4184 6.07849 17.0004 6.00049ZM8.50037 8.00049C9.16341 8.00049 9.79929 8.26388 10.2681 8.73272C10.737 9.20156 11.0004 9.83745 11.0004 10.5005C11.0004 11.1635 10.737 11.7994 10.2681 12.2683C9.79929 12.7371 9.16341 13.0005 8.50037 13.0005C7.83733 13.0005 7.20144 12.7371 6.7326 12.2683C6.26376 11.7994 6.00037 11.1635 6.00037 10.5005C6.00037 9.83745 6.26376 9.20156 6.7326 8.73272C7.20144 8.26388 7.83733 8.00049 8.50037 8.00049ZM15.5004 8.00049C15.7453 8.00052 15.9817 8.09044 16.1647 8.2532C16.3478 8.41596 16.4647 8.64024 16.4934 8.88349L16.5004 9.00049V9.50049H17.0004C17.2552 9.50077 17.5004 9.59837 17.6857 9.77334C17.8711 9.94831 17.9826 10.1874 17.9975 10.4419C18.0125 10.6963 17.9297 10.9469 17.7661 11.1423C17.6025 11.3378 17.3705 11.4634 17.1174 11.4935L17.0004 11.5005H16.5004V12.0005C16.5001 12.2554 16.4025 12.5005 16.2275 12.6859C16.0525 12.8712 15.8134 12.9827 15.559 12.9977C15.3045 13.0126 15.054 12.9298 14.8585 12.7662C14.6631 12.6026 14.5375 12.3706 14.5074 12.1175L14.5004 12.0005V11.5005H14.0004C13.7455 11.5002 13.5003 11.4026 13.315 11.2276C13.1297 11.0527 13.0181 10.8135 13.0032 10.5591C12.9883 10.3047 13.071 10.0541 13.2346 9.85866C13.3982 9.6632 13.6303 9.53759 13.8834 9.50749L14.0004 9.50049H14.5004V9.00049C14.5004 8.73527 14.6057 8.48092 14.7933 8.29338C14.9808 8.10585 15.2351 8.00049 15.5004 8.00049ZM8.50037 10.0005C8.36776 10.0005 8.24058 10.0532 8.14681 10.1469C8.05304 10.2407 8.00037 10.3679 8.00037 10.5005C8.00037 10.6331 8.05304 10.7603 8.14681 10.854C8.24058 10.9478 8.36776 11.0005 8.50037 11.0005C8.63298 11.0005 8.76015 10.9478 8.85392 10.854C8.94769 10.7603 9.00037 10.6331 9.00037 10.5005C9.00037 10.3679 8.94769 10.2407 8.85392 10.1469C8.76015 10.0532 8.63298 10.0005 8.50037 10.0005Z" fill="#FCC978"/>
</svg>
