<svg width="24" height="25" viewBox="0 0 24 25" fill="none" xmlns="http://www.w3.org/2000/svg">
<g clip-path="url(#clip0_1359_2512)">
<path fill-rule="evenodd" clip-rule="evenodd" d="M17.0001 6.99902C17.7631 6.99902 18.3941 7.43302 18.8561 7.88902C19.3371 8.36202 19.7781 8.99802 20.1701 9.69902C20.9571 11.105 21.6421 12.942 22.0951 14.757C22.5451 16.558 22.7941 18.439 22.6351 19.918C22.4751 21.403 21.7101 22.999 20.0001 22.999C18.5241 22.999 17.3481 22.239 16.3861 21.468L16.0351 21.179L15.5431 20.764L15.0991 20.396C14.0801 19.571 13.1751 18.999 12.0001 18.999C10.8251 18.999 9.92012 19.571 8.90112 20.396L8.45712 20.764L7.96512 21.179L7.61512 21.468C6.65112 22.239 5.47512 22.999 4.00012 22.999C2.28912 22.999 1.52412 21.403 1.36512 19.918C1.20712 18.438 1.45512 16.558 1.90512 14.757C2.35812 12.942 3.04312 11.105 3.83012 9.69802C4.22212 8.99802 4.66312 8.36202 5.14412 7.88802C5.60612 7.43302 6.23712 6.99902 7.00012 6.99902C7.51512 6.99902 8.01812 7.12202 8.51312 7.26902L9.10512 7.45002C9.20379 7.48069 9.30212 7.50969 9.40012 7.53702C10.2651 7.78502 11.1501 7.99902 12.0001 7.99902C12.8501 7.99902 13.7351 7.78502 14.6001 7.53702L15.4851 7.27002C15.9831 7.12302 16.4901 6.99902 17.0001 6.99902ZM17.0001 8.99902C16.6171 8.99902 16.2171 9.11502 15.8291 9.24202L15.3711 9.39302L15.1501 9.46102C14.2651 9.71302 13.1501 9.99902 12.0001 9.99902C10.8501 9.99902 9.73512 9.71302 8.85012 9.46102L8.63012 9.39302L8.17112 9.24202C7.78312 9.11402 7.38312 8.99902 7.00012 8.99902C6.58212 9.07702 6.20712 9.58402 5.92412 10.054L5.76612 10.329L5.57612 10.675C4.89412 11.893 4.26612 13.555 3.84612 15.242C3.45112 16.818 3.25912 18.328 3.33212 19.452L3.35812 19.745L3.37812 19.921L3.40812 20.129C3.47712 20.53 3.62612 20.999 4.00012 20.999C4.81212 20.999 5.49012 20.595 6.33312 19.925L6.73612 19.597L7.49612 18.961L7.84012 18.681C8.90412 17.838 10.2351 16.999 12.0001 16.999C13.7651 16.999 15.0961 17.839 16.1601 18.681L16.5051 18.961L17.2651 19.597L17.6671 19.925C18.5101 20.595 19.1871 20.999 20.0001 20.999C20.3401 20.999 20.4941 20.612 20.5711 20.24L20.6091 20.022L20.6461 19.705C20.7691 18.559 20.5791 16.94 20.1551 15.242C19.7691 13.696 19.2091 12.17 18.5931 10.988L18.2341 10.328L18.0761 10.055C17.7931 9.58402 17.4181 9.07702 17.0001 8.99902ZM8.50012 10.999C9.16316 10.999 9.79905 11.2624 10.2679 11.7313C10.7367 12.2001 11.0001 12.836 11.0001 13.499C11.0001 14.1621 10.7367 14.798 10.2679 15.2668C9.79905 15.7356 9.16316 15.999 8.50012 15.999C7.83708 15.999 7.2012 15.7356 6.73236 15.2668C6.26351 14.798 6.00012 14.1621 6.00012 13.499C6.00012 12.836 6.26351 12.2001 6.73236 11.7313C7.2012 11.2624 7.83708 10.999 8.50012 10.999ZM15.5001 10.999C15.7451 10.9991 15.9815 11.089 16.1645 11.2517C16.3475 11.4145 16.4645 11.6388 16.4931 11.882L16.5001 11.999V12.499H17.0001C17.255 12.4993 17.5002 12.5969 17.6855 12.7719C17.8708 12.9468 17.9824 13.186 17.9973 13.4404C18.0122 13.6949 17.9294 13.9454 17.7659 14.1409C17.6023 14.3363 17.3702 14.4619 17.1171 14.492L17.0001 14.499H16.5001V14.999C16.4998 15.2539 16.4022 15.4991 16.2273 15.6844C16.0523 15.8697 15.8132 15.9813 15.5587 15.9962C15.3043 16.0111 15.0537 15.9284 14.8583 15.7648C14.6628 15.6012 14.5372 15.3691 14.5071 15.116L14.5001 14.999V14.499H14.0001C13.7452 14.4987 13.5001 14.4011 13.3148 14.2262C13.1294 14.0512 13.0179 13.8121 13.0029 13.5576C12.988 13.3032 13.0708 13.0526 13.2344 12.8572C13.398 12.6617 13.63 12.5361 13.8831 12.506L14.0001 12.499H14.5001V11.999C14.5001 11.7338 14.6055 11.4795 14.793 11.2919C14.9806 11.1044 15.2349 10.999 15.5001 10.999ZM8.50012 12.999C8.36751 12.999 8.24034 13.0517 8.14657 13.1455C8.0528 13.2392 8.00012 13.3664 8.00012 13.499C8.00012 13.6316 8.0528 13.7588 8.14657 13.8526C8.24034 13.9463 8.36751 13.999 8.50012 13.999C8.63273 13.999 8.75991 13.9463 8.85368 13.8526C8.94744 13.7588 9.00012 13.6316 9.00012 13.499C9.00012 13.3664 8.94744 13.2392 8.85368 13.1455C8.75991 13.0517 8.63273 12.999 8.50012 12.999Z" fill="white"/>
</g>
<defs>
<clipPath id="clip0_1359_2512">
<rect width="24" height="24" fill="white" transform="translate(0 0.291992)"/>
</clipPath>
</defs>
</svg>
