<svg width="24" height="25" viewBox="0 0 24 25" fill="none" xmlns="http://www.w3.org/2000/svg">
<g clip-path="url(#clip0_1059_6179)">
<path d="M5.663 24.4284C4.42893 24.4284 3.42847 23.4018 3.42847 22.1342V12.9132C3.42847 12.2165 3.73751 11.5565 4.26655 11.1218L10.4128 6.07443C10.8055 5.74923 11.2994 5.57129 11.8093 5.57129C12.3192 5.57129 12.813 5.74923 13.2057 6.07443L19.351 11.1218C19.8811 11.5565 20.1901 12.2165 20.1901 12.9132V22.1342C20.1901 23.4018 19.1897 24.4284 17.9556 24.4284H5.663Z" stroke="#FCC978" stroke-width="1.5" stroke-linecap="round" stroke-linejoin="round"/>
<path d="M9.19043 24.4281V18.6663C9.19043 18.1106 9.41117 17.5776 9.8041 17.1847C10.197 16.7918 10.73 16.571 11.2856 16.571H12.3332C12.8889 16.571 13.4218 16.7918 13.8148 17.1847C14.2077 17.5776 14.4284 18.1106 14.4284 18.6663V24.4281" stroke="#FCC978" stroke-width="1.5" stroke-linecap="round" stroke-linejoin="round"/>
</g>
<defs>
<clipPath id="clip0_1059_6179">
<rect width="24" height="24" fill="white" transform="translate(0 0.0864258)"/>
</clipPath>
</defs>
</svg>
