<svg width="19" height="22" viewBox="0 0 19 22" fill="none" xmlns="http://www.w3.org/2000/svg">
<path d="M3.663 20.4284C2.42893 20.4284 1.42847 19.4018 1.42847 18.1342V8.91318C1.42847 8.21652 1.73751 7.55653 2.26655 7.12178L8.41284 2.07443C8.80554 1.74923 9.29942 1.57129 9.80929 1.57129C10.3192 1.57129 10.813 1.74923 11.2057 2.07443L17.351 7.12178C17.8811 7.55653 18.1901 8.21652 18.1901 8.91318V18.1342C18.1901 19.4018 17.1897 20.4284 15.9556 20.4284H3.663Z" stroke="white" stroke-width="1.5" stroke-linecap="round" stroke-linejoin="round"/>
<path d="M7.19043 20.4283V14.6665C7.19043 14.1108 7.41117 13.5779 7.8041 13.185C8.19703 12.792 8.72995 12.5713 9.28564 12.5713H10.3332C10.8889 12.5713 11.4218 12.792 11.8148 13.185C12.2077 13.5779 12.4284 14.1108 12.4284 14.6665V20.4283" stroke="white" stroke-width="1.5" stroke-linecap="round" stroke-linejoin="round"/>
</svg>
