<svg width="24" height="25" viewBox="0 0 24 25" fill="none" xmlns="http://www.w3.org/2000/svg">
<g clip-path="url(#clip0_1436_25716)">
<path d="M2.625 20.2502C2.32663 20.2502 2.04048 20.1317 1.8295 19.9207C1.61853 19.7098 1.5 19.4236 1.5 19.1252V7.50024C1.5 7.10242 1.65804 6.72089 1.93934 6.43958C2.22064 6.15828 2.60218 6.00024 3 6.00024H11.25C11.6478 6.00024 12.0294 6.15828 12.3107 6.43958C12.592 6.72089 12.75 7.10242 12.75 7.50024V8.25024H15.75C16.1478 8.25024 16.5294 8.40828 16.8107 8.68958C17.092 8.97089 17.25 9.35242 17.25 9.75024V11.2502H21C21.3978 11.2502 21.7794 11.4083 22.0607 11.6896C22.342 11.9709 22.5 12.3524 22.5 12.7502V24.0002H12.375C12.2755 24.0002 12.1802 24.0398 12.1098 24.1101C12.0395 24.1804 12 24.2758 12 24.3752C12 24.4747 12.0395 24.5701 12.1098 24.6404C12.1802 24.7107 12.2755 24.7502 12.375 24.7502H22.4363C22.3587 24.9697 22.2149 25.1596 22.0249 25.294C21.8348 25.4283 21.6077 25.5004 21.375 25.5002H12.375C12.0766 25.5002 11.7905 25.3817 11.5795 25.1707C11.3685 24.9598 11.25 24.6736 11.25 24.3752V22.5002H7.125C6.82663 22.5002 6.54048 22.3817 6.3295 22.1707C6.11853 21.9598 6 21.6736 6 21.3752V20.2502H2.625ZM12.6863 19.5002C12.6087 19.7197 12.4649 19.9096 12.2749 20.044C12.0848 20.1783 11.8577 20.2504 11.625 20.2502H16.5V9.75024C16.5 9.55133 16.421 9.36057 16.2803 9.21991C16.1397 9.07926 15.9489 9.00024 15.75 9.00024H12.75V18.7502H2.625C2.52554 18.7502 2.43016 18.7898 2.35984 18.8601C2.28951 18.9304 2.25 19.0258 2.25 19.1252C2.25 19.2247 2.28951 19.3201 2.35984 19.3904C2.43016 19.4607 2.52554 19.5002 2.625 19.5002H12.6863ZM6.75 20.2502H7.125C6.993 20.2507 6.868 20.272 6.75 20.314V20.2502ZM12 18.0002V7.50024C12 7.30133 11.921 7.11057 11.7803 6.96991C11.6397 6.82926 11.4489 6.75024 11.25 6.75024H3.75V18.0002H12ZM12 22.5002V23.314C12.118 23.272 12.243 23.2507 12.375 23.2502H21.75V12.7502C21.75 12.5513 21.671 12.3606 21.5303 12.2199C21.3897 12.0793 21.1989 12.0002 21 12.0002H17.25V21.0002H7.125C7.02554 21.0002 6.93016 21.0398 6.85983 21.1101C6.78951 21.1804 6.75 21.2758 6.75 21.3752C6.75 21.4747 6.78951 21.5701 6.85983 21.6404C6.93016 21.7107 7.02554 21.7502 7.125 21.7502H17.1863C17.1087 21.9697 16.9649 22.1596 16.7749 22.294C16.5848 22.4283 16.3577 22.5004 16.125 22.5002H12Z" fill="white"/>
</g>
<defs>
<clipPath id="clip0_1436_25716">
<rect width="24" height="24" fill="white" transform="translate(0 0.395752)"/>
</clipPath>
</defs>
</svg>
