<svg width="24" height="24" viewBox="0 0 24 24" fill="none" xmlns="http://www.w3.org/2000/svg">
<mask id="mask0_1351_5863" style="mask-type:luminance" maskUnits="userSpaceOnUse" x="1" y="1" width="22" height="22">
<path d="M18.343 7.58355C18.9802 8.49712 19.4116 9.53806 19.6075 10.6345H22V13.3615H19.6075C19.4116 14.458 18.9802 15.499 18.343 16.4125L20.0355 18.105L18.107 20.0335L16.4145 18.341C15.5009 18.9783 14.46 19.4097 13.3635 19.6055V21.998H10.6365V19.6055C9.54001 19.4097 8.49907 18.9783 7.5855 18.341L5.893 20.0335L3.9645 18.105L5.657 16.4125C5.01979 15.499 4.58837 14.458 4.3925 13.3615H2V10.6345H4.3925C4.58837 9.53806 5.01979 8.49712 5.657 7.58355L3.9645 5.89105L5.893 3.96255L7.5855 5.65505C8.49907 5.01784 9.54001 4.58641 10.6365 4.39055V1.99805H13.3635V4.39055C14.46 4.58641 15.5009 5.01784 16.4145 5.65505L18.107 3.96255L20.0355 5.89105L18.343 7.58355Z" fill="#555555" stroke="white" stroke-linejoin="round"/>
<path d="M12 14.498C12.663 14.498 13.2989 14.2347 13.7678 13.7658C14.2366 13.297 14.5 12.6611 14.5 11.998C14.5 11.335 14.2366 10.6991 13.7678 10.2303C13.2989 9.76144 12.663 9.49805 12 9.49805C11.337 9.49805 10.7011 9.76144 10.2322 10.2303C9.76339 10.6991 9.5 11.335 9.5 11.998C9.5 12.6611 9.76339 13.297 10.2322 13.7658C10.7011 14.2347 11.337 14.498 12 14.498Z" fill="#555555" stroke="white" stroke-linejoin="round"/>
</mask>
<g mask="url(#mask0_1351_5863)">
<path d="M0 -0.00195312H24V23.998H0V-0.00195312Z" fill="white"/>
</g>
</svg>
