<svg width="303" height="132" viewBox="0 0 303 132" fill="none" xmlns="http://www.w3.org/2000/svg">
<g clip-path="url(#clip0_524_758)">
<rect width="230" height="132" transform="translate(73)" fill="white"/>
<path d="M134.211 86V70.504H132.04L132.781 67.8H136.915V86H134.211ZM140.038 86V83.595C140.653 83.0837 141.36 82.49 142.157 81.814C142.954 81.1293 143.765 80.4057 144.588 79.643C145.411 78.8717 146.17 78.1047 146.863 77.342C147.556 76.5707 148.115 75.8427 148.54 75.158C148.973 74.4647 149.19 73.8623 149.19 73.351C149.19 72.7703 149.047 72.2417 148.761 71.765C148.484 71.2797 148.107 70.894 147.63 70.608C147.153 70.3133 146.625 70.166 146.044 70.166C145.463 70.166 144.93 70.3133 144.445 70.608C143.968 70.894 143.583 71.2797 143.288 71.765C143.002 72.2417 142.859 72.7703 142.859 73.351H140.155C140.155 72.2503 140.424 71.258 140.961 70.374C141.507 69.4813 142.222 68.775 143.106 68.255C143.999 67.7263 144.978 67.462 146.044 67.462C147.119 67.462 148.098 67.7263 148.982 68.255C149.866 68.7837 150.572 69.4943 151.101 70.387C151.63 71.271 151.894 72.259 151.894 73.351C151.894 73.9577 151.768 74.5817 151.517 75.223C151.266 75.8643 150.915 76.5187 150.464 77.186C150.022 77.8533 149.506 78.5293 148.917 79.214C148.328 79.8987 147.695 80.5833 147.019 81.268C146.343 81.9527 145.654 82.6287 144.952 83.296H152.05V86H140.038ZM160.15 86.338C159.049 86.338 158.061 86.0823 157.186 85.571C156.319 85.0597 155.634 84.375 155.132 83.517C154.629 82.659 154.378 81.7057 154.378 80.657H157.082C157.082 81.203 157.212 81.7013 157.472 82.152C157.732 82.6027 158.091 82.9623 158.551 83.231C159.01 83.4997 159.543 83.634 160.15 83.634C160.696 83.634 161.203 83.4997 161.671 83.231C162.139 82.9623 162.516 82.6027 162.802 82.152C163.088 81.7013 163.231 81.203 163.231 80.657C163.231 79.9637 163.049 79.383 162.685 78.915C162.321 78.447 161.814 78.1003 161.164 77.875C160.522 77.641 159.781 77.524 158.941 77.524V75.392C160.085 75.392 160.999 75.1667 161.684 74.716C162.368 74.2653 162.711 73.5937 162.711 72.701C162.711 72.233 162.585 71.8083 162.334 71.427C162.091 71.037 161.766 70.7293 161.359 70.504C160.96 70.27 160.531 70.153 160.072 70.153C159.595 70.153 159.136 70.27 158.694 70.504C158.26 70.7293 157.905 71.037 157.628 71.427C157.35 71.8083 157.212 72.233 157.212 72.701H154.508C154.508 71.9817 154.655 71.3057 154.95 70.673C155.253 70.0317 155.66 69.4727 156.172 68.996C156.692 68.5107 157.281 68.1337 157.94 67.865C158.607 67.5877 159.305 67.449 160.033 67.449C160.986 67.449 161.87 67.6873 162.685 68.164C163.508 68.632 164.167 69.2647 164.661 70.062C165.163 70.8507 165.415 71.7303 165.415 72.701C165.415 73.4723 165.224 74.2047 164.843 74.898C164.47 75.5827 163.95 76.068 163.283 76.354C163.863 76.562 164.349 76.8913 164.739 77.342C165.137 77.784 165.436 78.2953 165.636 78.876C165.835 79.448 165.935 80.0417 165.935 80.657C165.935 81.697 165.67 82.6503 165.142 83.517C164.613 84.375 163.907 85.0597 163.023 85.571C162.147 86.0823 161.19 86.338 160.15 86.338ZM175.552 86V81.346H167.765V78.629L174.902 67.8H178.256V78.642H179.92V81.346H178.256V86H175.552ZM170.911 78.629L175.552 78.642L175.526 71.531L170.911 78.629ZM188.536 86.338C187.383 86.338 186.339 86.0607 185.403 85.506C184.475 84.9427 183.739 84.1973 183.193 83.27C182.655 82.334 182.387 81.3113 182.387 80.202H185.091C185.091 80.8347 185.247 81.411 185.559 81.931C185.871 82.451 186.287 82.867 186.807 83.179C187.327 83.4823 187.903 83.634 188.536 83.634C189.16 83.634 189.732 83.4823 190.252 83.179C190.772 82.867 191.188 82.451 191.5 81.931C191.812 81.411 191.968 80.8347 191.968 80.202C191.968 79.5693 191.825 78.993 191.539 78.473C191.253 77.9443 190.824 77.524 190.252 77.212C189.68 76.8913 188.952 76.731 188.068 76.731H183.479L185.325 67.8H194.126V70.504H187.522L186.807 74.027L188.38 74.053C189.619 74.079 190.707 74.365 191.643 74.911C192.587 75.4483 193.328 76.1763 193.866 77.095C194.403 78.005 194.672 79.0407 194.672 80.202C194.672 81.0427 194.511 81.8357 194.191 82.581C193.87 83.3177 193.428 83.9677 192.865 84.531C192.31 85.0943 191.66 85.5363 190.915 85.857C190.178 86.1777 189.385 86.338 188.536 86.338ZM203.236 86.338C202.074 86.338 201.013 86.052 200.051 85.48C199.089 84.8993 198.317 84.128 197.737 83.166C197.165 82.1953 196.879 81.125 196.879 79.955C196.879 79.331 196.952 78.7677 197.1 78.265C197.247 77.7623 197.472 77.2337 197.776 76.679L202.898 67.8H206.044L202.495 73.936C203.214 73.7973 203.916 73.793 204.601 73.923C205.294 74.0443 205.944 74.2827 206.551 74.638C207.157 74.9847 207.69 75.4267 208.15 75.964C208.618 76.4927 208.982 77.095 209.242 77.771C209.502 78.447 209.632 79.175 209.632 79.955C209.632 80.8303 209.463 81.6537 209.125 82.425C208.795 83.1963 208.336 83.8767 207.747 84.466C207.166 85.0467 206.486 85.506 205.706 85.844C204.934 86.1733 204.111 86.338 203.236 86.338ZM203.236 83.634C203.946 83.634 204.579 83.4607 205.134 83.114C205.688 82.7673 206.126 82.3123 206.447 81.749C206.767 81.1857 206.928 80.5877 206.928 79.955C206.928 79.2877 206.763 78.6767 206.434 78.122C206.113 77.5673 205.675 77.1253 205.121 76.796C204.566 76.458 203.946 76.289 203.262 76.289C202.551 76.289 201.918 76.4623 201.364 76.809C200.809 77.1557 200.371 77.6063 200.051 78.161C199.739 78.7157 199.583 79.3137 199.583 79.955C199.583 80.657 199.752 81.2853 200.09 81.84C200.436 82.3947 200.887 82.8323 201.442 83.153C201.996 83.4737 202.594 83.634 203.236 83.634ZM211.995 86L220.926 70.504H210.942V67.8H224.059V70.504L215.102 86H211.995ZM243.024 74.365H240.684L239.319 79.422H241.659L240.97 82.048H238.63L237.564 86H234.86L235.926 82.048H230.674L229.608 86H226.904L227.97 82.048H225.63L226.332 79.422H228.659L230.024 74.365H227.684L228.386 71.752H230.713L231.779 67.8H234.483L233.417 71.752H238.695L239.735 67.8H242.439L241.399 71.752H243.713L243.024 74.365ZM236.615 79.422L237.98 74.365H232.728L231.363 79.422H236.615Z" fill="#333333"/>
<path d="M63 6L73.5 0.803848V11.1962L63 6Z" fill="white"/>
<path d="M63 18L73.5 12.8038V23.1962L63 18Z" fill="white"/>
<path d="M63 30L73.5 24.8038V35.1962L63 30Z" fill="white"/>
<path d="M63 42L73.5 36.8038V47.1962L63 42Z" fill="white"/>
<path d="M63 54L73.5 48.8038V59.1962L63 54Z" fill="white"/>
<path d="M63 66L73.5 60.8038V71.1962L63 66Z" fill="white"/>
<path d="M63 78L73.5 72.8038V83.1962L63 78Z" fill="white"/>
<path d="M63 90L73.5 84.8038V95.1962L63 90Z" fill="white"/>
<path d="M63 102L73.5 96.8038V107.196L63 102Z" fill="white"/>
<path d="M63 114L73.5 108.804V119.196L63 114Z" fill="white"/>
<path d="M63 126L73.5 120.804V131.196L63 126Z" fill="white"/>
<path d="M34.049 24.378L32.369 22.7085C31.781 23.1845 31.123 23.5555 30.395 23.8215C29.667 24.0875 28.897 24.2205 28.085 24.2205C27.084 24.2205 26.146 24.0245 25.271 23.6325C24.396 23.2335 23.626 22.6875 22.961 21.9945C22.296 21.2945 21.7745 20.4825 21.3965 19.5585C21.0255 18.6345 20.84 17.6475 20.84 16.5975C20.84 15.5475 21.0255 14.564 21.3965 13.647C21.7745 12.723 22.296 11.911 22.961 11.211C23.626 10.511 24.396 9.965 25.271 9.573C26.146 9.174 27.084 8.9745 28.085 8.9745C29.086 8.9745 30.0205 9.174 30.8885 9.573C31.7635 9.965 32.5335 10.511 33.1985 11.211C33.8635 11.911 34.3815 12.723 34.7525 13.647C35.1305 14.564 35.3195 15.5475 35.3195 16.5975C35.3195 17.4515 35.19 18.2635 34.931 19.0335C34.679 19.7965 34.329 20.4965 33.881 21.1335L35.5925 22.8345L34.049 24.378ZM28.085 22.0365C28.575 22.0365 29.051 21.956 29.513 21.795C29.982 21.634 30.4055 21.4065 30.7835 21.1125L29.156 19.4955L30.6995 17.9415L32.2535 19.506C32.5475 19.086 32.768 18.6275 32.915 18.1305C33.062 17.6335 33.1355 17.1225 33.1355 16.5975C33.1355 15.8485 33.0025 15.1485 32.7365 14.4975C32.4775 13.8395 32.1135 13.262 31.6445 12.765C31.1825 12.261 30.647 11.869 30.038 11.589C29.429 11.302 28.778 11.1585 28.085 11.1585C27.385 11.1585 26.7305 11.302 26.1215 11.589C25.5125 11.876 24.9735 12.2715 24.5045 12.7755C24.0425 13.2725 23.6785 13.85 23.4125 14.508C23.1535 15.159 23.024 15.8555 23.024 16.5975C23.024 17.3465 23.1535 18.05 23.4125 18.708C23.6785 19.366 24.046 19.947 24.515 20.451C24.984 20.948 25.523 21.3365 26.132 21.6165C26.741 21.8965 27.392 22.0365 28.085 22.0365ZM26.1845 34.3H28.736L34.0805 49H31.7705L30.752 46.207H24.1685L23.1605 49H20.84L26.1845 34.3ZM24.977 44.023H29.9435L27.455 37.198L24.977 44.023ZM32.3795 59.3V61.484H27.6965V74H25.5125V61.484H20.84V59.3H32.3795ZM26.1845 84.3H28.736L34.0805 99H31.7705L30.752 96.207H24.1685L23.1605 99H20.84L26.1845 84.3ZM24.977 94.023H29.9435L27.455 87.198L24.977 94.023ZM21.26 124V109.3H26.6675C27.4655 109.3 28.183 109.496 28.82 109.888C29.457 110.28 29.961 110.808 30.332 111.473C30.71 112.131 30.899 112.866 30.899 113.678C30.899 114.364 30.7695 114.991 30.5105 115.558C30.2585 116.125 29.9015 116.608 29.4395 117.007C28.9845 117.406 28.463 117.693 27.875 117.868L31.424 124H28.8935L25.4495 118.068H23.444V124H21.26ZM23.444 115.883H26.4365C26.8565 115.883 27.238 115.778 27.581 115.568C27.931 115.358 28.2075 115.078 28.4105 114.728C28.6135 114.378 28.715 113.983 28.715 113.542C28.715 113.101 28.6135 112.705 28.4105 112.355C28.2075 111.998 27.931 111.718 27.581 111.515C27.238 111.305 26.8565 111.2 26.4365 111.2H23.444V115.883Z" fill="white"/>
</g>
<rect x="0.5" y="0.5" width="302" height="131" rx="9.5" stroke="white"/>
<defs>
<clipPath id="clip0_524_758">
<rect width="303" height="132" rx="10" fill="white"/>
</clipPath>
</defs>
</svg>
