<svg width="40" height="40" viewBox="0 0 40 40" fill="none" xmlns="http://www.w3.org/2000/svg">
<path d="M36.433 8.98661C37.1463 10.8266 36.148 12.0866 34.2163 13.3299C32.658 14.3299 30.673 15.4166 28.5697 17.2716C26.5063 19.0899 24.4947 21.2816 22.7063 23.4383C21.1763 25.2898 19.7196 27.2007 18.3397 29.1666C17.6497 30.1516 16.6847 31.6216 16.6847 31.6216C16.3384 32.1566 15.8615 32.5945 15.2989 32.894C14.7364 33.1935 14.1069 33.3447 13.4697 33.3333C12.8329 33.3295 12.2076 33.1629 11.6533 32.8493C11.099 32.5357 10.6342 32.0855 10.303 31.5416C8.63801 28.7466 7.35467 27.6416 6.76467 27.2466C5.18634 26.1833 3.33301 26.0299 3.33301 23.5566C3.33301 21.5916 4.99134 19.9999 7.03634 19.9999C8.48134 20.0533 9.82301 20.6216 11.013 21.4216C11.773 21.9316 12.578 22.6083 13.4147 23.4966C14.5359 21.9665 15.702 20.4698 16.9113 19.0083C18.8397 16.6833 21.1163 14.1883 23.558 12.0349C25.958 9.91828 28.733 7.93661 31.6747 6.88994C33.5913 6.20661 35.7213 7.14494 36.433 8.98661Z" stroke="#EE8E32" stroke-width="2.5" stroke-linecap="round" stroke-linejoin="round"/>
</svg>
