<svg width="40" height="40" viewBox="0 0 40 40" fill="none" xmlns="http://www.w3.org/2000/svg">
<g clip-path="url(#clip0_636_113)">
<path d="M20 3.75C24.1572 3.74895 28.1973 5.12967 31.4844 7.6748C34.7714 10.2199 37.1194 13.7855 38.1592 17.8105C39.1989 21.8354 38.8714 26.0916 37.2285 29.9102C35.6272 33.632 32.8642 36.7318 29.3574 38.75H10.6426C7.13591 36.7318 4.37279 33.6319 2.77148 29.9102C1.12864 26.0916 0.801166 21.8354 1.84082 17.8105C2.8806 13.7856 5.22873 10.2199 8.51562 7.6748C11.6999 5.20923 15.5908 3.83636 19.6104 3.75391L20 3.75ZM22.6904 5.44238C20.9064 5.16461 19.0897 5.16464 17.3057 5.44238L16.248 5.60742V5.55078L14.6074 6.08984C11.4171 7.13829 8.602 9.09549 6.50781 11.7207L4.88867 13.75H5.08203L4.73047 14.416C3.83924 16.1015 3.23294 17.9231 2.9375 19.8066L2.71094 21.25H2.73047V22.5C2.73047 27.1088 4.52658 31.4494 7.78613 34.709L7.79004 34.7119C8.23957 35.1579 8.70769 35.5781 9.19434 35.9717L9.53809 36.25H18.6592L18.7422 35.0889L19.9941 17.5508L21.2461 35.0889L21.3291 36.25H30.4482L30.792 35.9736C31.1461 35.6883 31.4893 35.3883 31.8223 35.0752H31.8408L32.2061 34.7119C33.8154 33.1119 35.0916 31.208 35.96 29.1113C36.8283 27.0145 37.2726 24.7656 37.2656 22.4961L37.2617 21.25H37.2842L37.0576 19.8066C36.7622 17.9232 36.1568 16.1014 35.2656 14.416L34.9131 13.75H35.1016L33.4883 11.7217C31.3968 9.09233 28.58 7.13439 25.3867 6.08984L23.748 5.55371V5.60742L22.6904 5.44238Z" fill="#EE8E32" stroke="#EE8E32" stroke-width="2.5"/>
</g>
<defs>
<clipPath id="clip0_636_113">
<rect width="40" height="40" fill="white"/>
</clipPath>
</defs>
</svg>
