<svg width="40" height="40" viewBox="0 0 40 40" fill="none" xmlns="http://www.w3.org/2000/svg">
<path d="M31.6663 28.3333H34.9997C35.9997 28.3333 36.6663 27.6666 36.6663 26.6666V21.6666C36.6663 20.1666 35.4997 18.8333 34.1663 18.5C31.1663 17.6666 26.6663 16.6666 26.6663 16.6666C26.6663 16.6666 24.4997 14.3333 22.9997 12.8333C22.1663 12.1666 21.1663 11.6666 19.9997 11.6666H8.33301C7.33301 11.6666 6.49967 12.3333 5.99967 13.1666L3.66634 18C3.44564 18.6437 3.33301 19.3195 3.33301 20V26.6666C3.33301 27.6666 3.99967 28.3333 4.99967 28.3333H8.33301" stroke="#EE8E32" stroke-width="3.33333" stroke-linecap="round" stroke-linejoin="round"/>
<path d="M11.6663 31.6667C13.5073 31.6667 14.9997 30.1743 14.9997 28.3333C14.9997 26.4924 13.5073 25 11.6663 25C9.82539 25 8.33301 26.4924 8.33301 28.3333C8.33301 30.1743 9.82539 31.6667 11.6663 31.6667Z" stroke="#EE8E32" stroke-width="3.33333" stroke-linecap="round" stroke-linejoin="round"/>
<path d="M15 28.3333H25" stroke="#EE8E32" stroke-width="3.33333" stroke-linecap="round" stroke-linejoin="round"/>
<path d="M28.3333 31.6667C30.1743 31.6667 31.6667 30.1743 31.6667 28.3333C31.6667 26.4924 30.1743 25 28.3333 25C26.4924 25 25 26.4924 25 28.3333C25 30.1743 26.4924 31.6667 28.3333 31.6667Z" stroke="#EE8E32" stroke-width="3.33333" stroke-linecap="round" stroke-linejoin="round"/>
</svg>
