<svg width="40" height="40" viewBox="0 0 40 40" fill="none" xmlns="http://www.w3.org/2000/svg">
<path d="M16.666 22.5002C17.3595 22.5002 17.9333 22.7374 18.4316 23.2356C18.9301 23.734 19.1669 24.3073 19.166 24.9993V30.0002C19.1659 30.6942 18.9289 31.2677 18.4316 31.7659C17.935 32.2634 17.3617 32.5011 16.667 32.5002H6.66602C5.97212 32.5002 5.39927 32.2627 4.90234 31.7659C4.46739 31.3309 4.23064 30.837 4.17773 30.2542L4.16602 29.9993V25.0002C4.16602 24.3067 4.40358 23.7336 4.90137 23.2366C5.33786 22.8008 5.83207 22.5638 6.41309 22.511L6.66699 22.5002H16.666ZM31.1592 23.1711L29.1143 25.2483L27.7188 26.6663H35.833V28.3333H27.7188L29.1143 29.7512L31.1592 31.8284L29.999 32.9875L24.5107 27.4993L29.999 22.011L31.1592 23.1711ZM5.83301 30.8333H17.5V24.1663H5.83301V30.8333ZM33.333 7.50024C34.0266 7.50024 34.6002 7.73727 35.0986 8.2356C35.5971 8.73402 35.8338 9.30735 35.833 9.99927V15.0002C35.8329 15.6941 35.5958 16.2677 35.0986 16.7659C34.6019 17.2634 34.0287 17.5011 33.334 17.5002H23.333C22.639 17.5002 22.0663 17.2627 21.5693 16.7659C21.1344 16.3309 20.8976 15.837 20.8447 15.2542L20.833 14.9993V10.0002C20.833 9.30667 21.0705 8.73369 21.5684 8.23657C22.0049 7.80074 22.4989 7.56375 23.0801 7.51099L23.334 7.50024H33.333ZM15.4873 12.4993L9.99902 17.9875L8.83984 16.8284L10.8848 14.7512L12.2812 13.3333H4.16602V11.6663H12.2812L10.8848 10.2483L8.83984 8.17114L9.99902 7.01099L15.4873 12.4993ZM22.5 15.8333H34.166V9.16626H22.5V15.8333Z" fill="#EE8E32" stroke="#EE8E32" stroke-width="1.66667"/>
</svg>
