<svg width="40" height="40" viewBox="0 0 40 40" fill="none" xmlns="http://www.w3.org/2000/svg">
<path d="M20 4.16632C28.7446 4.1665 35.833 11.2557 35.833 20.0003C35.8328 28.7448 28.7445 35.8331 20 35.8333C11.2553 35.8333 4.16619 28.7449 4.16602 20.0003C4.16602 11.2555 11.2552 4.16632 20 4.16632ZM14.374 23.9837C12.4163 22.4184 9.81587 21.8593 6.91406 22.1868L5.98438 22.2923L6.19629 23.2044C6.81568 25.8647 8.19006 28.2897 10.1543 30.1878C12.1188 32.086 14.5902 33.3769 17.2705 33.9046L18.3428 34.1155L18.2627 33.0257C17.9297 28.4972 16.426 25.6209 14.375 23.9837H14.374ZM33.083 22.1868C30.1824 21.8593 27.5817 22.4189 25.624 23.9847C23.5741 25.6248 22.0703 28.4963 21.7373 33.0237L21.6572 34.1136L22.7295 33.9026C25.4089 33.3747 27.8788 32.0844 29.8428 30.1868C31.8068 28.289 33.1822 25.8643 33.8018 23.2044L34.0137 22.2923L33.083 22.1868ZM20 15.8333C18.419 15.8333 17.0961 16.3725 16.0869 17.0071L15.6797 17.2796L14.8496 17.8577C13.9999 18.4329 13.0684 18.9931 12.0459 19.3568L9.6416 20.2112L12.0869 20.9398C13.1469 21.2559 14.1447 21.7489 15.0391 22.3958L15.416 22.6829C17.1345 24.0592 18.431 26.0472 19.1992 28.6956L20 31.4544L20.7998 28.6956C21.5682 26.0468 22.8649 24.0573 24.583 22.6829C25.5705 21.8941 26.7008 21.3026 27.9121 20.9417L30.3535 20.2151L27.9551 19.3587C27.1848 19.0837 26.4656 18.6986 25.7949 18.2796L25.1406 17.8519L24.3193 17.2796C23.27 16.5351 21.8033 15.8334 20 15.8333ZM20 5.83331C16.6993 5.83273 13.5018 6.98458 10.96 9.09015C8.41812 11.1958 6.69071 14.1233 6.07715 17.3665L6.0752 17.3792L6.00391 17.7923L5.7959 18.9905L6.98828 18.7523L10.6709 18.015C11.8107 17.7877 12.8466 17.1973 13.8955 16.4896L13.9053 16.4827L14.7012 15.929L14.707 15.9241C15.9427 15.0466 17.7457 14.1663 20 14.1663C21.9725 14.1664 23.5982 14.84 24.8018 15.597L25.0371 15.7493L26.0947 16.4827V16.4837L26.1025 16.4886C27.0229 17.1106 27.9321 17.6381 28.9023 17.9134L28.9189 17.9183L28.9355 17.9222L29.2969 18.0091L29.3125 18.012L29.3281 18.0159L33.0117 18.7523L34.1826 18.9866L33.998 17.806C33.475 14.4693 31.7767 11.429 29.21 9.2337C26.6434 7.0387 23.3772 5.83278 20 5.83331Z" fill="#EE8E32" stroke="#EE8E32" stroke-width="1.66667"/>
</svg>
