<svg width="40" height="40" viewBox="0 0 40 40" fill="none" xmlns="http://www.w3.org/2000/svg">
<path d="M15.625 3.82812H25.625C25.9358 3.82813 26.2343 3.95113 26.4541 4.1709C26.6739 4.39067 26.7969 4.6892 26.7969 5C26.7969 5.3108 26.6739 5.60933 26.4541 5.8291C26.2343 6.04887 25.9358 6.17188 25.625 6.17188H21.7969V10.0781H28.2334C28.5513 10.0772 28.8665 10.139 29.1602 10.2607C29.454 10.3826 29.7203 10.5623 29.9443 10.7881L35.4844 16.3281H37.5C38.1423 16.3281 38.7587 16.5829 39.2129 17.0371C39.6671 17.4913 39.9219 18.1077 39.9219 18.75V26.25C39.9219 26.8923 39.6671 27.5087 39.2129 27.9629C38.7587 28.4171 38.1423 28.6719 37.5 28.6719H35.4844L29.9443 34.2119C29.7203 34.4377 29.454 34.6174 29.1602 34.7393C28.8665 34.861 28.5513 34.9228 28.2334 34.9219H16.1416C15.8237 34.9228 15.5085 34.861 15.2148 34.7393C14.921 34.6174 14.6547 34.4377 14.4307 34.2119L8.28809 28.0693C8.06228 27.8453 7.88258 27.579 7.76074 27.2852C7.66936 27.0648 7.61164 26.8323 7.58887 26.5957L7.57812 26.3584V23.0469H3.67188V26.875C3.67188 27.1858 3.54887 27.4843 3.3291 27.7041C3.10933 27.9239 2.8108 28.0469 2.5 28.0469C2.1892 28.0469 1.89067 27.9239 1.6709 27.7041C1.45113 27.4843 1.32813 27.1858 1.32812 26.875V16.875C1.32813 16.5642 1.45113 16.2657 1.6709 16.0459C1.89067 15.8261 2.1892 15.7031 2.5 15.7031C2.8108 15.7031 3.10933 15.8261 3.3291 16.0459C3.54887 16.2657 3.67188 16.5642 3.67188 16.875V20.7031H7.57812V12.5C7.57812 11.8577 7.83292 11.2413 8.28711 10.7871C8.7413 10.3329 9.35768 10.0781 10 10.0781H19.4531V6.17188H15.625C15.3142 6.17188 15.0157 6.04887 14.7959 5.8291C14.5761 5.60933 14.4531 5.3108 14.4531 5C14.4531 4.6892 14.5761 4.39067 14.7959 4.1709C15.0157 3.95113 15.3142 3.82813 15.625 3.82812ZM9.92188 26.3906L16.1094 32.5781H28.2656L28.2881 32.5557L34.1709 26.6709C34.2798 26.5621 34.4095 26.4758 34.5518 26.417C34.6583 26.373 34.7705 26.3452 34.8848 26.334L35 26.3281H37.5781V18.6719H35L34.8848 18.666C34.7705 18.6548 34.6583 18.627 34.5518 18.583C34.4095 18.5242 34.2798 18.4379 34.1709 18.3291L28.2881 12.4443L28.2656 12.4219H9.92188V26.3906Z" fill="#EE8E32" stroke="#EE8E32" stroke-width="0.15625"/>
</svg>
