<svg width="40" height="40" viewBox="0 0 40 40" fill="none" xmlns="http://www.w3.org/2000/svg">
<path d="M9.24707 20.2756C8.94156 21.2306 8.75783 22.1901 8.75781 23.1223C8.75781 29.062 13.8693 33.7473 20.0078 33.7473H20.3301C20.2213 33.7503 20.1123 33.7551 20.0029 33.7551C13.8619 33.7551 8.75301 29.061 8.75293 23.1301C8.75293 22.201 8.9384 21.2367 9.24707 20.2756ZM19.1533 6.58521L19.1523 6.58618L19.1436 6.59497C19.1379 6.60026 19.1294 6.60772 19.1191 6.61743C19.0986 6.63692 19.0685 6.66482 19.0303 6.70142C18.9536 6.77494 18.8427 6.88272 18.7021 7.02075C18.4211 7.29679 18.0221 7.69647 17.5439 8.19458C16.8307 8.93757 15.9374 9.90368 14.998 11.012C16.1643 9.62518 17.3964 8.29481 18.6914 7.02661L19.0205 6.70728L19.1152 6.61743L19.1143 6.61646L19.1494 6.58521C19.1642 6.57127 19.1799 6.5583 19.1953 6.54517L19.1533 6.58521ZM21.2578 6.97095L21.3145 7.02661C21.7035 7.40975 22.0876 7.79782 22.4658 8.19165V8.19263C23.6875 9.47326 24.8559 10.8041 25.9668 12.1819V12.1829C27.2553 13.8026 28.5544 15.6185 29.542 17.467V17.468C30.5177 19.299 31.2529 21.2652 31.2529 23.1301C31.2529 28.6517 26.8244 33.098 21.2578 33.6858V6.97095Z" fill="#EE8E32" stroke="#EE8E32" stroke-width="2.5"/>
</svg>
