<svg width="40" height="40" viewBox="0 0 40 40" fill="none" xmlns="http://www.w3.org/2000/svg">
<path d="M36.6663 17.055V26.4717C36.6663 31.2783 36.6663 33.6817 35.2013 35.1733C33.738 36.6667 31.3797 36.6667 26.6663 36.6667H13.333C8.61967 36.6667 6.26134 36.6667 4.79801 35.1733C3.33301 33.6833 3.33301 31.2783 3.33301 26.4733V21.8117C3.33301 18.3183 3.33301 16.57 4.25467 15.245C5.17801 13.92 6.79467 13.345 10.0297 12.19L23.363 7.43165C29.423 5.26998 32.453 4.18832 34.5597 5.71332C35.7063 6.54165 36.228 7.88832 36.4663 9.99998" stroke="#EE8E32" stroke-width="2.5" stroke-linecap="round"/>
<path d="M15 23.3334C15 20.9767 15 19.7984 15.7333 19.0667C16.4633 18.3334 17.6417 18.3334 20 18.3334C22.3583 18.3334 23.535 18.3334 24.2667 19.0667C25 19.7984 25 20.9767 25 23.3334C25 25.69 25 26.8684 24.2667 27.6C23.535 28.3334 22.3567 28.3334 20 28.3334C17.6433 28.3334 16.465 28.3334 15.7333 27.6C15 26.87 15 25.6917 15 23.3334Z" stroke="#EE8E32" stroke-width="2.5"/>
<path d="M24.9997 18.3333L26.6663 16.6666M14.9997 18.3333L13.333 16.6666M24.9997 28.3333L26.6663 30M14.9997 28.3333L13.333 30M8.33301 11.7666C8.33301 9.59163 8.33301 8.50496 8.89634 7.75496C9.04301 7.56051 9.21079 7.3894 9.39967 7.24163C10.133 6.66663 11.1997 6.66663 13.333 6.66663H14.6963C15.5413 6.66663 15.9647 6.66663 16.313 6.76163C16.7787 6.89121 17.2019 7.14123 17.5402 7.48649C17.8784 7.83176 18.1197 8.26008 18.2397 8.72829" stroke="#EE8E32" stroke-width="2.5" stroke-linecap="round"/>
</svg>
