<svg width="40" height="40" viewBox="0 0 40 40" fill="none" xmlns="http://www.w3.org/2000/svg">
<path d="M11.6663 36.6667V26.6667C11.6663 23.5234 11.6663 21.9534 12.643 20.9767C13.6197 20 15.1897 20 18.333 20H21.6663M21.6663 20C24.8097 20 26.3797 20 27.3563 20.9767C28.143 21.7617 28.2963 22.9334 28.3263 25M21.6663 20V12.9534C21.6663 8.58337 21.6663 6.40004 23.1013 5.40337C24.5363 4.41004 26.5813 5.17671 30.673 6.71171C32.7663 7.49504 33.813 7.88837 34.4063 8.74504C34.9997 9.60171 34.9997 10.72 34.9997 12.9534M28.333 36.6667V32.0834M34.9997 36.6667V20M6.66634 13.3334V10.8334C6.66634 9.26171 6.66634 8.47671 7.15467 7.98837C7.64301 7.50004 8.42801 7.50004 9.99967 7.50004H13.333C14.9047 7.50004 15.6897 7.50004 16.178 7.98837C16.6663 8.47671 16.6663 9.26171 16.6663 10.8334V13.3334M11.6663 6.66671V3.33337M36.6663 36.6667H3.33301M16.6663 25H17.4997M23.333 25H20.833M16.6663 30H23.333" stroke="#EE8E32" stroke-width="2.5" stroke-linecap="round"/>
</svg>
